<svg id="Layer_2" data-name="Layer 2" xmlns="http://www.w3.org/2000/svg" xmlns:xlink="http://www.w3.org/1999/xlink" viewBox="0 0 350 160"><defs><style>.cls-1,.cls-10,.cls-12,.cls-13,.cls-14,.cls-2,.cls-20,.cls-4,.cls-8{fill:none;}.cls-1{stroke:#f9a2a2;}.cls-1,.cls-10,.cls-14,.cls-16,.cls-17,.cls-4{stroke-linecap:round;}.cls-1,.cls-2{stroke-linejoin:round;stroke-width:27px;}.cls-2{stroke:#f4c38e;}.cls-3{fill:#f4c38e;}.cls-10,.cls-12,.cls-13,.cls-16,.cls-17,.cls-4{stroke:#000;}.cls-13,.cls-14,.cls-20,.cls-4,.cls-8{stroke-miterlimit:10;}.cls-10,.cls-12,.cls-13,.cls-14,.cls-16,.cls-17,.cls-4{stroke-width:1.5px;}.cls-5{fill:#f9cdcd;}.cls-6{fill:#fff;}.cls-7{fill:#dbdbde;}.cls-8{stroke:#f43939;}.cls-20,.cls-8{stroke-width:2px;}.cls-9{fill:#f9a2a2;}.cls-11{fill:#b07156;}.cls-12{stroke-linecap:square;}.cls-14{stroke:#b6b5bc;}.cls-15{fill:#eeeeef;}.cls-16{fill:url(#linear-gradient);}.cls-17{fill:url(#linear-gradient-2);}.cls-18{fill:#c9c8cd;}.cls-19{fill:#a3a1aa;}.cls-20{stroke:#eeeeef;}</style><linearGradient id="linear-gradient" x1="281.5" y1="114.63" x2="291.83" y2="114.63" gradientUnits="userSpaceOnUse"><stop offset="0" stop-color="#fff"/><stop offset="1"/></linearGradient><linearGradient id="linear-gradient-2" x1="270.34" y1="104.86" x2="283.31" y2="104.86" xlink:href="#linear-gradient"/></defs><title>Artboard 1 copy 3</title><polyline class="cls-1" points="212.15 85.87 198.66 132.18 175.82 132.18"/><line class="cls-2" x1="187.18" y1="132.18" x2="161.91" y2="132.18"/><path class="cls-3" d="M158.29,118.64h5a0,0,0,0,1,0,0v27.05a0,0,0,0,1,0,0H131.78a0,0,0,0,1,0,0v-.54A26.51,26.51,0,0,1,158.29,118.64Z"/><path class="cls-4" d="M152.43,145.43s-.52-5.16,3.72-6.75"/><path class="cls-4" d="M153.6,141s-.58,3.89,4.44,3.89"/><path class="cls-4" d="M140,132.67a23.29,23.29,0,0,0-3.59,12.48"/><path class="cls-4" d="M145.28,132.67a23.37,23.37,0,0,0-3.59,12.48"/><path class="cls-4" d="M150.8,132.67a23.29,23.29,0,0,0-3.59,12.48"/><path class="cls-5" d="M173.34,116h14.33a1,1,0,0,1,1,1v28.72a0,0,0,0,1,0,0H172.34a0,0,0,0,1,0,0V117A1,1,0,0,1,173.34,116Z"/><path class="cls-6" d="M204.85,146.77l-.64-65.42a9.47,9.47,0,0,1,9.45-9.45h65.92a15.22,15.22,0,0,1,15.18,15.18l.65,59.69Z"/><rect class="cls-7" x="205.87" y="88.26" width="86.79" height="1.67"/><rect class="cls-7" x="205.87" y="96.35" width="86.79" height="1.67"/><rect class="cls-7" x="205.87" y="104.45" width="86.79" height="1.67"/><rect class="cls-7" x="205.87" y="112.54" width="86.79" height="1.67"/><rect class="cls-7" x="205.87" y="120.63" width="86.79" height="1.67"/><path class="cls-8" d="M257.13,73a35.68,35.68,0,0,1,2,11.87c0,13.61-7.1,24.64-15.86,24.64s-15.85-11-15.85-24.64a35.94,35.94,0,0,1,2-11.87"/><path class="cls-9" d="M232.76,71.9h-19.1a9.47,9.47,0,0,0-9.45,9.45l.64,65.42h13.46Z"/><path class="cls-9" d="M279.58,71.9H255.27l14.54,74.87h25.6l-.65-59.69A15.22,15.22,0,0,0,279.58,71.9Z"/><line class="cls-10" x1="210.25" y1="132.67" x2="210.25" y2="104.35"/><path class="cls-11" d="M256.78,10.27h2.39A11.93,11.93,0,0,1,271.09,22.2V59a1,1,0,0,1-1,1h-6.88a18.36,18.36,0,0,1-18.36-18.36V22.2a11.93,11.93,0,0,1,11.93-11.93Z"/><path class="cls-3" d="M238.65,9h-3.47a16.51,16.51,0,0,0-16.55,16.56l.11,24.77a14.19,14.19,0,0,0,14.24,14h22.38l-.17-39A16.52,16.52,0,0,0,238.65,9Z"/><path class="cls-3" d="M244.19,84.45h0A11.18,11.18,0,0,1,233,73.27V45.52h22.29l.05,27.73A11.17,11.17,0,0,1,244.19,84.45Z"/><circle cx="234.8" cy="37.92" r="1.37"/><circle cx="222.65" cy="37.92" r="1.38"/><path class="cls-10" d="M226.59,41.26a26.47,26.47,0,0,1-2.76,4.93,1.28,1.28,0,0,0-.22,1.22,1.27,1.27,0,0,0,.9.85,18.35,18.35,0,0,0,3.92.21"/><path class="cls-10" d="M224.43,31.71a5.5,5.5,0,0,0-5,.2"/><path class="cls-10" d="M237.71,31.91a6,6,0,0,0-5.4,0"/><path class="cls-9" d="M245.9,9.91a9,9,0,0,1,7.83-.63c4.47,1.68,5.52,10.33,2.34,13Z"/><path class="cls-11" d="M219.61,20A16.53,16.53,0,0,1,235.18,9h3.92c11.76,0,17.54,6.62,16.93,17.3-.58,9.87-.77,15-.77,15h-3.93c-3.36-1.14-2.74-3.91-2.74-5.86s-1-3.35-2.77-4.76-2.85-2.29-2.85-6a5.37,5.37,0,0,0-3.64-5.1C233.37,17.65,224.51,17.54,219.61,20Z"/><path class="cls-10" d="M229.23,55.72s6.61-.12,9.07-3.74"/><line class="cls-12" x1="233.86" y1="65.2" x2="238.53" y2="65.2"/><line class="cls-10" x1="241.27" y1="37.03" x2="255.6" y2="37.03"/><path class="cls-13" d="M231.67,34.05h8.59a1,1,0,0,1,1,1v4.19a5.3,5.3,0,0,1-5.3,5.3h0a5.3,5.3,0,0,1-5.3-5.3V35.05a1,1,0,0,1,1-1Z"/><path class="cls-13" d="M217.1,34.05h8.59a1,1,0,0,1,1,1v4.19a5.3,5.3,0,0,1-5.3,5.3h0a5.3,5.3,0,0,1-5.3-5.3V35.05a1,1,0,0,1,1-1Z"/><ellipse class="cls-3" cx="255.27" cy="40.35" rx="6.73" ry="6.71"/><path class="cls-10" d="M252.18,40.83l5.18-4.26"/><path class="cls-10" d="M247,10.26c6.45,2.4,9.53,8.1,9.08,16q-.19,3.28-.33,5.87"/><circle class="cls-6" cx="256.76" cy="47.05" r="2.79"/><g id="Layer_16" data-name="Layer 16"><rect class="cls-6" x="19.34" y="132.44" width="311.33" height="22.34"/><line class="cls-14" x1="19.33" y1="132.44" x2="330.67" y2="132.44"/></g><path class="cls-15" d="M234.13,130.54h14.44a3.72,3.72,0,0,1,3.72,3.72V143a3.72,3.72,0,0,1-3.72,3.72H217.9a0,0,0,0,1,0,0v0A16.23,16.23,0,0,1,234.13,130.54Z"/><polyline class="cls-1" points="281.36 85.87 306.2 128.17 262.67 128.17"/><line class="cls-2" x1="285.27" y1="128.17" x2="248.76" y2="128.17"/><path class="cls-3" d="M245.13,114.63h5a0,0,0,0,1,0,0v27.05a0,0,0,0,1,0,0H218.63a0,0,0,0,1,0,0v-.54a26.51,26.51,0,0,1,26.51-26.51Z"/><line class="cls-16" x1="281.5" y1="114.63" x2="291.83" y2="114.63"/><line class="cls-17" x1="270.34" y1="94.12" x2="283.31" y2="115.61"/><path class="cls-4" d="M239.27,141.42s-.51-5.16,3.72-6.75"/><path class="cls-4" d="M240.44,137s-.58,3.89,4.45,3.89"/><path class="cls-4" d="M226.83,128.66a23.29,23.29,0,0,0-3.6,12.48"/><path class="cls-4" d="M232.13,128.66a23.29,23.29,0,0,0-3.6,12.48"/><path class="cls-4" d="M237.65,128.66a23.29,23.29,0,0,0-3.6,12.48"/><path class="cls-5" d="M270.18,112H284.5a1,1,0,0,1,1,1v28.72a0,0,0,0,1,0,0H269.18a0,0,0,0,1,0,0V113A1,1,0,0,1,270.18,112Z"/><rect class="cls-15" x="89.1" y="47.06" width="115.11" height="76.19" rx="5.93"/><rect class="cls-7" x="89.1" y="47.06" width="109.39" height="76.19" rx="5.93"/><path class="cls-18" d="M123.79,139.41V96.71A2.44,2.44,0,0,1,125.9,94h25.89a2.45,2.45,0,0,1,2.12,2.67v42.7a1.23,1.23,0,0,1-1.07,1.35h-28A1.23,1.23,0,0,1,123.79,139.41Z"/><path class="cls-19" d="M146.64,96.71v42.7a1.23,1.23,0,0,1-1.07,1.35H124.85a1.23,1.23,0,0,1-1.06-1.35V96.71A2.44,2.44,0,0,1,125.9,94h18.62A2.45,2.45,0,0,1,146.64,96.71Z"/><rect class="cls-18" x="114.5" y="140.46" width="63.21" height="6.09"/><rect class="cls-19" x="99.99" y="140.46" width="63.21" height="6.09"/><path class="cls-15" d="M56.36,110.7h0a21.73,21.73,0,0,1,21.73,21.73v8a0,0,0,0,1,0,0H34.63a0,0,0,0,1,0,0v-8A21.73,21.73,0,0,1,56.36,110.7Z"/><path class="cls-15" d="M75.62,25.41h6.85a.23.23,0,0,1,.23.23V56.35a.23.23,0,0,1-.23.23H75.62A15.58,15.58,0,0,1,60,41v0A15.58,15.58,0,0,1,75.62,25.41Z" transform="translate(49.89 -38.46) rotate(45)"/><path class="cls-15" d="M57.74,21.65H75.22a.85.85,0,0,1,.85.85V40.63a.85.85,0,0,1-.85.85H57.74a9.91,9.91,0,0,1-9.91-9.91v0a9.91,9.91,0,0,1,9.91-9.91Z" transform="translate(40.46 -34.56) rotate(45)"/><path class="cls-15" d="M49.51,18h3.36a.16.16,0,0,1,.16.16v3.48a.16.16,0,0,1-.16.16H49.51a1.9,1.9,0,0,1-1.9-1.9v0a1.9,1.9,0,0,1,1.9-1.9Z" transform="translate(28.84 -29.74) rotate(45)"/><path class="cls-20" d="M56.36,125.58,27.9,86.28a11.89,11.89,0,0,1,.54-14.65l33.5-39.72"/></svg>
