<svg id="Layer_2" data-name="Layer 2" xmlns="http://www.w3.org/2000/svg" xmlns:xlink="http://www.w3.org/1999/xlink" viewBox="0 0 350 160"><defs><style>.cls-1,.cls-10,.cls-11,.cls-12,.cls-13,.cls-14,.cls-21,.cls-24,.cls-3,.cls-4,.cls-5{fill:none;}.cls-2{fill:#b07156;}.cls-14,.cls-3{stroke:#000;}.cls-12,.cls-14,.cls-21,.cls-24,.cls-3,.cls-4,.cls-5{stroke-linecap:round;}.cls-10,.cls-14,.cls-21,.cls-24,.cls-3,.cls-4{stroke-width:1.5px;}.cls-13,.cls-24,.cls-4{stroke:#b07156;}.cls-12,.cls-5{stroke:#f9a2a2;}.cls-12,.cls-13,.cls-5{stroke-linejoin:round;}.cls-5{stroke-width:30px;}.cls-6{fill:#f9a2a2;}.cls-7{clip-path:url(#clip-path);}.cls-8{fill:#f43939;}.cls-9{clip-path:url(#clip-path-2);}.cls-10{stroke:#f88888;}.cls-10,.cls-11,.cls-14,.cls-21,.cls-24{stroke-miterlimit:10;}.cls-11{stroke:#f43939;stroke-width:3.5px;}.cls-12,.cls-13{stroke-width:27px;}.cls-15{fill:#f9cdcd;}.cls-16{fill:#a3a1aa;}.cls-17{fill:#c9c8cd;}.cls-18{fill:#dbdbde;}.cls-19{fill:#eeeeef;}.cls-20{fill:#fff;}.cls-21{stroke:#b6b5bc;}.cls-22{fill:#f4c38e;}.cls-23{clip-path:url(#clip-path-3);}</style><clipPath id="clip-path"><path class="cls-1" d="M239.38,131.53,232.22,71.2a9.48,9.48,0,0,1,9.46-9.45h53.86a15.22,15.22,0,0,1,15.18,15.18l7.15,54.6Z"/></clipPath><clipPath id="clip-path-2"><polygon class="cls-1" points="239.5 131.53 302.76 131.53 280.68 72.49 239.81 72.49 239.5 131.53"/></clipPath><clipPath id="clip-path-3"><path class="cls-1" d="M95,25H97.8a13.52,13.52,0,0,1,13.54,13.55l-.1,20.27A11.61,11.61,0,0,1,99.59,70.31H81.28l.14-31.88A13.52,13.52,0,0,1,95,25Z"/></clipPath></defs><title>Artboard 1 copy 2</title><ellipse cx="271.98" cy="21.43" rx="5.3" ry="5.29"/><ellipse cx="269.77" cy="38.18" rx="5.3" ry="5.29"/><ellipse cx="276.31" cy="32.61" rx="8.83" ry="8.81"/><path class="cls-2" d="M254.67,4.4H251.5a15,15,0,0,0-15,15.05L236.57,42a12.9,12.9,0,0,0,12.94,12.75h20.34l-.15-35.42A15,15,0,0,0,254.67,4.4Z"/><polygon class="cls-2" points="269.88 61.63 249.54 61.63 249.54 37.6 269.81 37.6 269.88 61.63"/><circle cx="251.16" cy="30.69" r="1.25"/><circle cx="240.12" cy="30.69" r="1.25"/><path class="cls-3" d="M243.7,33.73a23.46,23.46,0,0,1-2.51,4.48,1.15,1.15,0,0,0-.2,1.1,1.17,1.17,0,0,0,.82.78,17,17,0,0,0,3.56.19"/><path class="cls-3" d="M241.74,25.63c-1.48-.58-3,0-4.53.18"/><path class="cls-3" d="M253.81,25.81c-1.51-.06-3.26-.7-4.91,0"/><path d="M237.35,14.39a15,15,0,0,1,14.15-10h3.57c10.7,0,15.95,6,15.39,15.73-.52,9-.7,13.67-.7,13.67h-3.57c-3.05-1-2.49-3.56-2.49-5.33s-.93-3-2.52-4.32-2.59-2.09-2.59-5.44a4.87,4.87,0,0,0-3.31-4.64C249.86,12.26,241.81,12.16,237.35,14.39Z"/><ellipse class="cls-2" cx="269.77" cy="32.9" rx="6.12" ry="6.1"/><path class="cls-3" d="M267,33.33l4.7-3.87"/><path class="cls-4" d="M248.93,6.77A11.44,11.44,0,0,0,243.27,15"/><path class="cls-3" d="M246.1,46.88s6-.12,8.24-3.41"/><line class="cls-5" x1="229.99" y1="76.88" x2="210.11" y2="118.02"/><path class="cls-6" d="M227.32,131.53,220.16,71.2a9.48,9.48,0,0,1,9.46-9.45h65.92a15.22,15.22,0,0,1,15.18,15.18l7.15,54.6Z"/><g class="cls-7"><path class="cls-8" d="M239.74,61.1V94.38h3V60.78C241.74,60.87,240.74,61,239.74,61.1Z"/><polygon class="cls-8" points="239.81 81.41 284 81.41 302.63 131.53 239.5 131.53 239.81 81.41"/><g class="cls-9"><line class="cls-10" x1="294.82" y1="86.13" x2="234.29" y2="86.13"/><line class="cls-10" x1="294.82" y1="92.02" x2="234.29" y2="92.02"/><line class="cls-10" x1="294.82" y1="97.91" x2="234.29" y2="97.91"/><line class="cls-10" x1="294.82" y1="97.91" x2="234.29" y2="97.91"/><line class="cls-10" x1="294.82" y1="103.8" x2="234.29" y2="103.8"/><line class="cls-10" x1="294.82" y1="109.69" x2="234.29" y2="109.69"/><line class="cls-10" x1="294.82" y1="115.58" x2="234.29" y2="115.58"/><line class="cls-10" x1="294.82" y1="121.46" x2="234.29" y2="121.46"/><line class="cls-10" x1="294.82" y1="127.35" x2="234.29" y2="127.35"/></g><line class="cls-11" x1="299.97" y1="130.16" x2="275.05" y2="60.33"/></g><polyline class="cls-12" points="297.32 75.72 322.16 118.02 278.63 118.02"/><line class="cls-13" x1="301.23" y1="118.02" x2="264.72" y2="118.02"/><path class="cls-2" d="M261.09,104.48h5a0,0,0,0,1,0,0v27.05a0,0,0,0,1,0,0H234.58a0,0,0,0,1,0,0V131a26.51,26.51,0,0,1,26.51-26.51Z"/><path class="cls-14" d="M255.23,131.27s-.51-5.16,3.72-6.75"/><path class="cls-14" d="M256.4,126.88s-.58,3.89,4.45,3.89"/><path class="cls-14" d="M242.78,118.51A23.37,23.37,0,0,0,239.19,131"/><path class="cls-14" d="M248.09,118.51a23.29,23.29,0,0,0-3.6,12.48"/><path class="cls-14" d="M253.61,118.51A23.29,23.29,0,0,0,250,131"/><path class="cls-15" d="M286.14,101.81h14.33a1,1,0,0,1,1,1v28.72a0,0,0,0,1,0,0H285.14a0,0,0,0,1,0,0V102.81A1,1,0,0,1,286.14,101.81Z"/><g id="Layer_15" data-name="Layer 15"><rect class="cls-16" x="145.25" y="91.84" width="27.63" height="15.45"/><rect class="cls-17" x="137.55" y="95.02" width="45.96" height="37.21"/><path class="cls-18" d="M192.16,95h-8.67v37.24h40.45v-9.68l-15.89-7.2a9.65,9.65,0,0,1-5.53-7.21l-.84-5.09A9.63,9.63,0,0,0,192.16,95Z"/><rect class="cls-18" x="140.08" y="78.17" width="37.97" height="14.35" rx="2.67"/><rect class="cls-17" x="140.08" y="78.17" width="28.8" height="14.35" rx="2.67"/><rect class="cls-19" x="142.49" y="80.96" width="23.98" height="8.77"/></g><g id="Layer_16" data-name="Layer 16"><rect class="cls-20" x="18.08" y="132.23" width="311.33" height="16.91"/><line class="cls-21" x1="18.07" y1="132.23" x2="329.41" y2="132.23"/></g><path class="cls-22" d="M95,25H97.8a13.52,13.52,0,0,1,13.54,13.55l-.1,20.27A11.61,11.61,0,0,1,99.59,70.31H81.28l.14-31.88A13.52,13.52,0,0,1,95,25Z"/><polygon class="cls-22" points="81.26 76.52 99.56 76.52 99.56 54.89 81.32 54.89 81.26 76.52"/><circle class="cls-22" cx="100.69" cy="50.62" r="5.5"/><path class="cls-2" d="M67.79,63.56l4.63-24.21a14.81,14.81,0,0,0,.21-1.88,16.26,16.26,0,0,1,16.2-15.16h9a16.17,16.17,0,0,1,11.5,4.76A16.35,16.35,0,0,1,114,38.57l-11.8,0c0,20.62,9.64,35.38-2.62,34.48l-23.85.15A8.08,8.08,0,0,1,67.79,63.56Z"/><path class="cls-22" d="M110.65,48a21,21,0,0,0,2.26,4,1.07,1.07,0,0,1-.56,1.7,15.64,15.64,0,0,1-3.21.17Z"/><g class="cls-23"><circle cx="110.86" cy="46.22" r="1.13"/><path class="cls-24" d="M111.88,43c-1.11-1.11-2.93-.63-4.43,0"/><path class="cls-14" d="M111.24,58.83a2.44,2.44,0,0,1-2.6-1.37"/></g><rect class="cls-16" x="72.6" y="75.9" width="34.83" height="6.36" rx="3.18"/><path class="cls-16" d="M127.72,153H52.54c-.49,0-.9-.61-.9-1.36l4.57-51.39c0-10,5.39-18.11,12-18.11h43.88c6.59,0,12,8.15,12,18.11l4.57,51.39C128.62,152.43,128.22,153,127.72,153Z"/><path class="cls-16" d="M131.9,91.23a22.28,22.28,0,1,0-14.74,35.37,22.28,22.28,0,1,0,22.57-31A11,11,0,0,1,131.9,91.23Z"/><path class="cls-16" d="M90.29,107.34A21.44,21.44,0,0,0,51.52,91.52,9.8,9.8,0,0,1,44,95.62a21.44,21.44,0,1,0,21.1,29.13A21.44,21.44,0,0,0,90.29,107.34Z"/><line class="cls-3" x1="52.32" y1="136.58" x2="55.7" y2="105.65"/></svg>
