<svg id="Layer_2" data-name="Layer 2" xmlns="http://www.w3.org/2000/svg" xmlns:xlink="http://www.w3.org/1999/xlink" viewBox="0 0 350 160"><defs><style>.cls-1,.cls-11,.cls-16,.cls-2,.cls-20,.cls-21,.cls-5,.cls-8,.cls-9{fill:none;}.cls-2{stroke:#eeeeef;stroke-width:2px;}.cls-11,.cls-2,.cls-21{stroke-miterlimit:10;}.cls-3{fill:#eeeeef;}.cls-4{fill:#dbdbde;}.cls-20,.cls-5{stroke:#994634;}.cls-16,.cls-21,.cls-5,.cls-8{stroke-linecap:round;}.cls-16,.cls-20,.cls-5{stroke-linejoin:round;stroke-width:27px;}.cls-6{fill:#2a283a;}.cls-7{fill:#f6c288;}.cls-8,.cls-9{stroke:#000;}.cls-11,.cls-21,.cls-8,.cls-9{stroke-width:1.5px;}.cls-9{stroke-linecap:square;}.cls-10{fill:#fff;}.cls-11{stroke:#fff;}.cls-12{fill:#f4c38e;}.cls-13{fill:#f2f2f2;}.cls-14{fill:#994634;}.cls-15{fill:#a7735b;}.cls-16{stroke:#f4c38e;}.cls-17{fill:#de4243;}.cls-18{clip-path:url(#clip-path);}.cls-19{clip-path:url(#clip-path-2);}.cls-21{stroke:#b6b5bc;}</style><clipPath id="clip-path"><path class="cls-1" d="M163.24,90.73l11.07,20.21a.86.86,0,0,1-.31,1.17l-11.37,6.23a7.62,7.62,0,0,1-10.2-3.32l-8.16-13.38a1.85,1.85,0,0,1,.84-2.58l17-8.7A.86.86,0,0,1,163.24,90.73Z"/></clipPath><clipPath id="clip-path-2"><path class="cls-1" d="M172.56,91.81l5.34,13.53a1.55,1.55,0,0,1-.62,2.09l-14.61,8a1.55,1.55,0,0,1-2.1-.61L149.83,95.22a1.55,1.55,0,0,1,.62-2.09L157.94,89C162.6,86.47,167.82,88.13,172.56,91.81Z"/></clipPath></defs><title>Artboard 1 copy 4</title><line class="cls-2" x1="291.71" y1="122.32" x2="291.71" y2="54.1"/><path class="cls-3" d="M291.71,77.41h0a6.22,6.22,0,0,1-6.2-6.2V42.27a6.22,6.22,0,0,1,6.2-6.2h0a6.21,6.21,0,0,1,6.19,6.2v8.52l-2.4,2.39,2.4,2.53v15.5A6.21,6.21,0,0,1,291.71,77.41Z"/><line class="cls-2" x1="291.71" y1="122.32" x2="310.51" y2="56.75"/><path class="cls-3" d="M304.09,79.15h0a6.22,6.22,0,0,1-4.25-7.67l8-27.82a6.21,6.21,0,0,1,7.66-4.24h0a6.21,6.21,0,0,1,4.25,7.66L315,63.75l-3,1.64,1.62,3.08-1.91,6.43A6.21,6.21,0,0,1,304.09,79.15Z"/><line class="cls-2" x1="291.71" y1="122.32" x2="272.91" y2="56.75"/><path class="cls-3" d="M279.33,79.15h0a6.22,6.22,0,0,1-7.67-4.25l-8-27.82a6.21,6.21,0,0,1,4.25-7.66h0a6.21,6.21,0,0,1,7.66,4.24l3.76,12.47-1.65,3,3,1.76,2.86,10.62A6.22,6.22,0,0,1,279.33,79.15Z"/><circle class="cls-4" cx="291.71" cy="113.69" r="23.89"/><polygon class="cls-4" points="291.71 115.54 309.79 84.22 273.62 84.22 291.71 115.54"/><line class="cls-5" x1="159" y1="89.02" x2="118.05" y2="136.09"/><polyline class="cls-5" points="216.62 92.38 229.06 120.93 213.07 124.74"/><path class="cls-6" d="M178,9s-22.6-2.33-22.1,22.5c.34,16.81-4.56,16.39-2.28,30.92H172.3v-50Z"/><path class="cls-7" d="M181.48,9H178a16.54,16.54,0,0,0-16.55,16.56l.12,24.78a14.2,14.2,0,0,0,14.24,14h22.38l-.17-39A16.52,16.52,0,0,0,181.48,9Z"/><path class="cls-7" d="M187,84.4h0a11.17,11.17,0,0,1-11.17-11.17V45.47h22.29l.05,27.73A11.18,11.18,0,0,1,187,84.4Z"/><circle cx="177.24" cy="38.01" r="1.37"/><circle cx="165.34" cy="38.29" r="1.38"/><path class="cls-8" d="M167.83,34.73a5.53,5.53,0,0,0-5,.2"/><path class="cls-8" d="M180.54,34.56a6,6,0,0,0-5.41,0"/><path class="cls-8" d="M172.06,55.68s6.61-.13,9.07-3.75"/><line class="cls-9" x1="176.69" y1="65.15" x2="181.36" y2="65.15"/><ellipse class="cls-7" cx="198.1" cy="40.3" rx="6.73" ry="6.71"/><path class="cls-7" d="M195,40.78l5.18-4.26"/><circle class="cls-10" cx="199.58" cy="47" r="2.79"/><path class="cls-8" d="M169.41,41.21a25.87,25.87,0,0,1-2.75,4.93,1.29,1.29,0,0,0,.68,2.07,18.35,18.35,0,0,0,3.92.21"/><path class="cls-6" d="M159,29.55h5.19l2.49-5.19.62,5h15.57l6.22-8.93L186,8.79,176.14,9C175.14,9.29,160.86,9.15,159,29.55Z"/><ellipse class="cls-11" cx="179.03" cy="36.45" rx="6.96" ry="5.49" transform="translate(-1.04 67.34) rotate(-21.24)"/><ellipse class="cls-11" cx="163.66" cy="36.62" rx="5.49" ry="6.5" transform="translate(70.24 175.89) rotate(-68.76)"/><line class="cls-11" x1="185.56" y1="34.6" x2="191.28" y2="34.6"/><path class="cls-6" d="M186,8.79C203.2,9.62,202.86,27,210.26,42c6.07,12.34,1.51,22.2,1.51,22.2H186.6s-1.84-14,1-21a18.92,18.92,0,0,0-2.27-18.38Z"/><rect class="cls-12" x="74.03" y="97.19" width="18.48" height="6.51" rx="3.17"/><path class="cls-13" d="M138.54,129.48C125,117.48,123.1,84.2,123.1,84.2H74.48s.33,30.9,13,45.28Z"/><rect class="cls-12" x="71.98" y="103.37" width="18.48" height="6.51" rx="3.17"/><rect class="cls-12" x="71.05" y="109.88" width="21.72" height="6.51" rx="3.17"/><rect class="cls-12" x="72.45" y="116.39" width="18.93" height="6.51" rx="3.17"/><rect class="cls-12" x="74.63" y="122.9" width="14.56" height="6.51" rx="2.92"/><path class="cls-3" d="M172.61,69.59h28.57a31.24,31.24,0,0,1,31.24,31.24V128.3a1.12,1.12,0,0,1-1.12,1.12H142.49a1.12,1.12,0,0,1-1.12-1.12V100.83A31.24,31.24,0,0,1,172.61,69.59Z"/><rect class="cls-4" x="158.56" y="92.09" width="55.26" height="1.67"/><rect class="cls-4" x="158.56" y="100.19" width="55.26" height="1.67"/><rect class="cls-4" x="158.56" y="108.28" width="55.26" height="1.67"/><rect class="cls-4" x="158.56" y="116.37" width="55.26" height="1.67"/><rect class="cls-4" x="158.56" y="124.47" width="55.26" height="1.67"/><path class="cls-14" d="M171.05,69.63c-16.46.82-30.79,15.06-30.79,31.71v27a1.12,1.12,0,0,0,1.12,1.11h30.08A352.29,352.29,0,0,0,171.05,69.63Z"/><path class="cls-14" d="M232.43,128.3V100.83a31.34,31.34,0,0,0-29-31.15c0,.18-4.61,23.9-4,59.73h31.92A1.12,1.12,0,0,0,232.43,128.3Z"/><path class="cls-15" d="M154.47,82.92l11.28,5.17L159,95.48,172.06,117l.13-.3a340,340,0,0,0-1.14-47l-.54,0C168.13,69.91,158.43,71.58,154.47,82.92Z"/><path class="cls-15" d="M215.14,95.48l-6.75-7.39,11.28-5.17a19.09,19.09,0,0,0-15.23-13.14c-.34,0-.68-.08-1-.1,0,.16-3.54,18.36-4,46.94Z"/><line class="cls-8" x1="149.45" y1="129.41" x2="147.77" y2="98.69"/><line class="cls-16" x1="165.41" y1="103.24" x2="205.67" y2="119.01"/><path class="cls-12" d="M173.66,92l4.21,13.26a1.56,1.56,0,0,1-.59,2.13l-14.61,8a1.57,1.57,0,0,1-2.12-.66L149.49,94.59a1.57,1.57,0,0,1,.59-2.14l6.73-3.69C162.54,85.88,167.89,89,173.66,92Z"/><path class="cls-12" d="M163.24,90.73l11.07,20.21a.86.86,0,0,1-.31,1.17l-11.37,6.23a7.62,7.62,0,0,1-10.2-3.32l-8.16-13.38a1.85,1.85,0,0,1,.84-2.58l17-8.7A.86.86,0,0,1,163.24,90.73Z"/><path class="cls-17" d="M135.42,57.68c-5,2.45-6,10.52-2.27,18s10.73,11.59,15.69,9.14,6-10.52,2.28-18S140.39,55.23,135.42,57.68ZM147.9,82.92c-3.84,1.9-9.71-1.85-12.84-8.17s-2.52-13.26,1.31-15.16,9.71,1.85,12.83,8.18S151.73,81,147.9,82.92Z"/><rect class="cls-17" x="149.58" y="83.07" width="2.62" height="11.8" transform="translate(-23.8 76.03) rotate(-26.29)"/><path class="cls-3" d="M147.9,82.92c-3.84,1.9-9.71-1.85-12.84-8.17s-2.52-13.26,1.31-15.16,9.71,1.85,12.83,8.18S151.73,81,147.9,82.92Z"/><g class="cls-18"><line class="cls-8" x1="143.71" y1="104.91" x2="153.43" y2="100.19"/><line class="cls-8" x1="146.39" y1="110.11" x2="156.11" y2="105.39"/><line class="cls-8" x1="149.21" y1="115.29" x2="158.92" y2="110.57"/><path class="cls-8" d="M164.64,118.42s-3.42-2.15-.25-4.51"/><path class="cls-8" d="M164.39,113.91a6.86,6.86,0,0,1-4,2.14"/></g><g class="cls-19"><line class="cls-8" x1="143.04" y1="99.17" x2="156.07" y2="92.49"/></g><line class="cls-20" x1="190.24" y1="112.97" x2="224.69" y2="126.47"/><g id="Layer_16" data-name="Layer 16"><rect class="cls-10" x="15.07" y="129.22" width="311.33" height="22.34"/><line class="cls-21" x1="15.06" y1="129.22" x2="326.41" y2="129.22"/></g></svg>
