<svg xmlns="http://www.w3.org/2000/svg" version="1.1" xmlns:xlink="http://www.w3.org/1999/xlink" xmlns:svgjs="http://svgjs.dev/svgjs" width="2000" height="520" viewBox="0 0 2000 520"><g transform="matrix(1,0,0,1,-1.2120889804466515,-1.0724612365958137)"><svg viewBox="0 0 396 103" data-background-color="#ffffff" preserveAspectRatio="xMidYMid meet" height="520" width="2000" xmlns="http://www.w3.org/2000/svg" xmlns:xlink="http://www.w3.org/1999/xlink"><defs></defs><g id="tight-bounds" transform="matrix(1,0,0,1,0.23999361812843745,0.21242983845215235)"><svg viewBox="0 0 395.52 102.57514004053931" height="102.57514004053931" width="395.52"><g><svg viewBox="0 0 395.52 102.57514004053931" height="102.57514004053931" width="395.52"><g transform="matrix(1,0,0,1,0,61.697608132812164)"><svg viewBox="0 0 395.52 40.877531907727146" height="40.877531907727146" width="395.52"><g><svg viewBox="0 0 395.52 40.877531907727146" height="40.877531907727146" width="395.52"><g><svg viewBox="0 0 395.52 22.047387435966563" height="22.047387435966563" width="395.52"><g transform="matrix(1,0,0,1,0,0)"><svg width="395.52" viewBox="4 -40.29999923706055 741.75 41.349998474121094" height="22.047387435966563" data-palette-color="#ffffff"><path d="M25.5-9Q25.5-10.55 24.25-11.93 23-13.3 21.15-14.38 19.3-15.45 16-17.15L16-17.15Q12.15-19.1 9.83-20.5 7.5-21.9 5.88-23.83 4.25-25.75 4.25-28.1L4.25-28.1Q4.25-30.6 6.3-33.48 8.35-36.35 11.33-38.33 14.3-40.3 16.8-40.3L16.8-40.3Q19.85-40.3 23.88-39.55 27.9-38.8 29.75-37.95L29.75-37.95 29.75-28.5 28.4-28.5Q25.9-32.6 22.9-34.83 19.9-37.05 16.6-37.05L16.6-37.05Q13.55-37.05 11.8-35.18 10.05-33.3 10.05-30.3L10.05-30.3Q10.05-28.65 11.35-27.23 12.65-25.8 14.58-24.65 16.5-23.5 19.8-21.85L19.8-21.85Q23.55-19.95 25.83-18.57 28.1-17.2 29.68-15.33 31.25-13.45 31.25-11.15L31.25-11.15Q31.25-8.65 29.05-5.78 26.85-2.9 23.68-0.93 20.5 1.05 17.9 1.05L17.9 1.05Q14.7 1.05 10.3 0.3 5.9-0.45 4-1.3L4-1.3 4-10.75 5.35-10.75Q8-6.65 11.33-4.42 14.65-2.2 18.15-2.2L18.15-2.2Q20.35-2.2 22.03-3.15 23.7-4.1 24.6-5.68 25.5-7.25 25.5-9L25.5-9ZM56.7-19.05Q60.2-19.05 62.27-20.9 64.35-22.75 64.35-26L64.35-26Q64.35-30.7 61.95-33.73 59.55-36.75 54.95-36.75L54.95-36.75Q51.4-36.75 48.5-34.7L48.5-34.7 48.5-3.9 56.1-1.7 55.2 0.05 38.15 0.05 38.15-1.25 42.85-4.95 42.85-35.85 37.7-37.55 38.55-39.3 43.85-39.3Q48.8-39.3 53.6-39.6L53.6-39.6Q57.1-39.8 58.8-39.8L58.8-39.8Q62.25-39.8 64.9-38.33 67.55-36.85 69.02-34.27 70.5-31.7 70.5-28.55L70.5-28.55Q70.5-25.1 68-22.03 65.5-18.95 61.62-17.2 57.75-15.45 53.95-15.65L53.95-15.65 51.55-17.4 52.45-19.15 56.75-19.15 56.7-19.05ZM111.34-1.75L110.44 0 95.94 0 95.94-1.3 100.44-5 96.44-14.65 79.44-14.65 75.05-4.6 84.05-1.75 83.19 0 68.19 0 68.19-1.3 72.75-4.9 87.14-37.7 91.64-40.25 106.34-4.9 111.34-1.75ZM95.64-16.6L88.19-34.6 80.3-16.6 95.64-16.6ZM151.34-1.6L150.49 0.15 141.49 0.15 130.19-17.7 127.84-19.45 128.49-20.75 131.39-20.75Q134.94-20.75 136.99-22.48 139.04-24.2 139.04-27.25L139.04-27.25Q139.04-31.3 136.79-34 134.54-36.7 130.19-36.7L130.19-36.7Q127.29-36.7 124.89-35L124.89-35 124.89-3.5 130.09-1.65 129.24 0.1 114.54 0.1 114.54-1.2 119.24-4.85 119.24-35.7 114.09-37.5 114.94-39.25 120.24-39.25Q124.79-39.25 129.29-39.55L129.29-39.55Q132.49-39.75 134.09-39.75L134.09-39.75Q137.34-39.75 139.89-38.4 142.44-37.05 143.84-34.77 145.24-32.5 145.24-29.75L145.24-29.75Q145.24-27.25 143.64-24.95 142.04-22.65 139.52-20.98 136.99-19.3 134.19-18.45L134.19-18.45 137.34-17.35 145.34-4.7 151.34-1.6ZM189.19-40.2L189.19-27.95 187.94-27.6 181.34-37.35 174.94-37.35 174.94-3.6 180.14-1.75 179.24 0 164.54 0 164.54-1.3 169.24-5 169.24-37.35 163.04-37.35 156.44-27.6 155.19-27.95 155.19-40.2 157.69-39.3 186.69-39.3 189.19-40.2ZM229.89-1.75L228.99 0 214.49 0 214.49-1.3 218.99-5 214.99-14.65 197.99-14.65 193.59-4.6 202.59-1.75 201.74 0 186.74 0 186.74-1.3 191.29-4.9 205.69-37.7 210.19-40.25 224.89-4.9 229.89-1.75ZM214.19-16.6L206.74-34.6 198.84-16.6 214.19-16.6ZM271.19-38L266.44-34.35 266.44 0 264.04 0 240.19-30.7 240.19-4.4 245.09-1.75 244.19 0 233.09 0 233.09-1.3 237.79-4.95 237.79-34.8 232.64-37.55 233.49-39.3 240.79-39.3 264.04-9.35 264.04-34.9 259.19-37.55 260.09-39.3 271.19-39.3 271.19-38ZM338.08-1.6L337.18 0.15 322.48 0.15 322.48-1.15 327.18-4.85 327.18-33.25 313.68 0.1 311.23 0.1 297.83-33.65 297.83-4.4 303.03-1.65 302.18 0.1 290.73 0.1 290.73-1.2 295.43-4.9 295.43-34.55 290.28-37.5 291.13-39.25 301.33-39.25 314.03-7.1 326.78-39.25 337.63-39.25 337.63-37.95 332.88-34.25 332.88-3.6 338.08-1.6ZM383.78-1.75L382.88 0 368.38 0 368.38-1.3 372.88-5 368.88-14.65 351.88-14.65 347.48-4.6 356.48-1.75 355.63 0 340.63 0 340.63-1.3 345.18-4.9 359.58-37.7 364.08-40.25 378.78-4.9 383.78-1.75ZM368.08-16.6L360.63-34.6 352.73-16.6 368.08-16.6ZM423.78-1.6L422.93 0.15 413.93 0.15 402.63-17.7 400.28-19.45 400.93-20.75 403.83-20.75Q407.38-20.75 409.43-22.48 411.48-24.2 411.48-27.25L411.48-27.25Q411.48-31.3 409.23-34 406.98-36.7 402.63-36.7L402.63-36.7Q399.73-36.7 397.33-35L397.33-35 397.33-3.5 402.53-1.65 401.68 0.1 386.98 0.1 386.98-1.2 391.68-4.85 391.68-35.7 386.53-37.5 387.38-39.25 392.68-39.25Q397.23-39.25 401.73-39.55L401.73-39.55Q404.93-39.75 406.53-39.75L406.53-39.75Q409.78-39.75 412.33-38.4 414.88-37.05 416.28-34.77 417.68-32.5 417.68-29.75L417.68-29.75Q417.68-27.25 416.08-24.95 414.48-22.65 411.95-20.98 409.43-19.3 406.63-18.45L406.63-18.45 409.78-17.35 417.78-4.7 423.78-1.6ZM437.37-3.55L442.57-1.7 441.72 0.05 427.02 0.05 427.02-1.25 431.72-4.9 431.72-35.7 426.57-37.55 427.42-39.3 442.12-39.3 442.12-38 437.37-34.35 437.37-3.55ZM465.77-1.7L464.92 0.05 456.17 0.05 440.42-19.65 455.92-33.15 450.17-37.5 451.02-39.25 464.17-39.25 464.17-37.95 445.82-21.95 459.87-4.6 465.77-1.7ZM501.77 0.9L499.27 0 469.57 0 469.57-1.3 474.27-5 474.27-35.75 469.12-37.55 469.97-39.3 498.77-39.3 501.27-40.2 501.27-28.95 500.02-28.6 494.12-37.35 479.92-37.35 479.92-21.05 488.17-21.05 491.82-27.6 493.12-27.6 493.12-12.3 491.37-11.4 488.27-19.1 479.92-19.1 479.92-1.95 493.92-1.95 500.52-11.75 501.77-11.35 501.77 0.9ZM544.82-40.2L544.82-27.95 543.57-27.6 536.97-37.35 530.57-37.35 530.57-3.6 535.77-1.75 534.87 0 520.17 0 520.17-1.3 524.87-5 524.87-37.35 518.67-37.35 512.07-27.6 510.82-27.95 510.82-40.2 513.32-39.3 542.32-39.3 544.82-40.2ZM570.27-19.05Q573.77-19.05 575.84-20.9 577.92-22.75 577.92-26L577.92-26Q577.92-30.7 575.52-33.73 573.12-36.75 568.52-36.75L568.52-36.75Q564.97-36.75 562.07-34.7L562.07-34.7 562.07-3.9 569.67-1.7 568.77 0.05 551.72 0.05 551.72-1.25 556.42-4.95 556.42-35.85 551.27-37.55 552.12-39.3 557.42-39.3Q562.37-39.3 567.17-39.6L567.17-39.6Q570.67-39.8 572.37-39.8L572.37-39.8Q575.82-39.8 578.47-38.33 581.12-36.85 582.59-34.27 584.07-31.7 584.07-28.55L584.07-28.55Q584.07-25.1 581.57-22.03 579.07-18.95 575.19-17.2 571.32-15.45 567.52-15.65L567.52-15.65 565.12-17.4 566.02-19.15 570.32-19.15 570.27-19.05ZM622.66 0.9L620.16 0 590.56 0 590.56-1.3 595.26-5 595.26-35.7 590.11-37.55 590.96-39.3 605.66-39.3 605.66-38 600.91-34.3 600.91-1.95 614.16-1.95 621.41-12.75 622.66-12.35 622.66 0.9ZM669.51-1.75L668.61 0 654.11 0 654.11-1.3 658.61-5 654.61-14.65 637.61-14.65 633.21-4.6 642.21-1.75 641.36 0 626.36 0 626.36-1.3 630.91-4.9 645.31-37.7 649.81-40.25 664.51-4.9 669.51-1.75ZM653.81-16.6L646.36-34.6 638.46-16.6 653.81-16.6ZM694.46-40.3Q697.01-40.3 700.43-39.55 703.86-38.8 705.41-37.95L705.41-37.95 705.41-28.45 704.06-28.45Q699.36-36.4 691.56-36.4L691.56-36.4Q688.11-36.4 685.31-34.43 682.51-32.45 680.91-28.98 679.31-25.5 679.31-21.15L679.31-21.15Q679.31-16.15 680.86-11.98 682.41-7.8 685.63-5.3 688.86-2.8 693.61-2.8L693.61-2.8Q697.76-2.8 705.66-9.5L705.66-9.5 707.06-7.25 697.86-0.1Q696.06 0.55 694.38 0.78 692.71 1 690.81 1L690.81 1Q685.66 1 681.66-1.55 677.66-4.1 675.43-8.58 673.21-13.05 673.21-18.75L673.21-18.75Q673.21-24.6 676.56-29.58 679.91-34.55 684.91-37.43 689.91-40.3 694.46-40.3L694.46-40.3ZM745.75 0.9L743.25 0 713.55 0 713.55-1.3 718.25-5 718.25-35.75 713.1-37.55 713.95-39.3 742.75-39.3 745.25-40.2 745.25-28.95 744-28.6 738.1-37.35 723.9-37.35 723.9-21.05 732.15-21.05 735.8-27.6 737.1-27.6 737.1-12.3 735.35-11.4 732.25-19.1 723.9-19.1 723.9-1.95 737.9-1.95 744.5-11.75 745.75-11.35 745.75 0.9Z" opacity="1" transform="matrix(1,0,0,1,0,0)" fill="#ffffff" class="undefined-text-0" data-fill-palette-color="primary" id="text-0"></path></svg></g></svg></g><g transform="matrix(1,0,0,1,0,27.252246472299806)"><svg viewBox="0 0 395.52 13.625285435427337" height="13.625285435427337" width="395.52"><g transform="matrix(1,0,0,1,0,0)"><svg width="395.52" viewBox="3 -32.7400016784668 1210.4599609375 41.70000076293945" height="13.625285435427337" data-palette-color="#ffffff"><path d="M5.62 0.07Q3 0.07 3-1.29L3-1.29 3-28.66Q3-29.57 3.42-29.97 3.83-30.37 4.74-30.37L4.74-30.37 19.24-30.37Q19.92-30.37 20.23-29.86 20.53-29.35 20.53-28.2L20.53-28.2 20.53-26.88Q20.53-25.73 20.23-25.22 19.92-24.71 19.24-24.71L19.24-24.71 9.69-24.71 9.69-18.36 18.92-18.36Q19.6-18.36 19.92-17.85 20.24-17.33 20.24-16.21L20.24-16.21 20.24-14.87Q20.24-13.72 19.92-13.2 19.6-12.67 18.92-12.67L18.92-12.67 9.69-12.67 9.69-1.29Q9.69 0.07 7.08 0.07L7.08 0.07 5.62 0.07ZM62.79-26.44Q61.42-26.44 60.8-26.78 60.17-27.12 60.17-27.83L60.17-27.83 60.17-31.32Q60.17-32.03 60.81-32.39 61.44-32.74 62.79-32.74L62.79-32.74 63.98-32.74Q65.33-32.74 65.96-32.39 66.59-32.03 66.59-31.32L66.59-31.32 66.59-27.83Q66.59-27.12 65.97-26.78 65.35-26.44 63.98-26.44L63.98-26.44 62.79-26.44ZM62.79 0.07Q60.17 0.07 60.17-1.29L60.17-1.29 60.17-21.41Q60.17-22.09 60.81-22.44 61.44-22.78 62.79-22.78L62.79-22.78 63.98-22.78Q65.33-22.78 65.96-22.44 66.59-22.09 66.59-21.41L66.59-21.41 66.59-1.29Q66.59 0.07 63.98 0.07L63.98 0.07 62.79 0.07ZM110.19 0.07Q107.6 0.07 107.6-1.29L107.6-1.29 107.6-15.06Q107.6-18.19 107.19-20.26L107.19-20.26Q107.07-20.92 107.07-21.19L107.07-21.19Q107.07-21.68 107.98-21.98 108.9-22.29 110.06-22.44 111.22-22.58 111.92-22.58L111.92-22.58Q112.68-22.58 112.99-22.02 113.29-21.46 113.54-20.39L113.54-20.39 113.68-19.75Q114.71-21.12 116.43-22.08 118.15-23.05 120.13-23.05L120.13-23.05Q123.4-23.05 124.96-21.34 126.52-19.63 126.52-16.04L126.52-16.04 126.52-1.29Q126.52 0.07 123.89 0.07L123.89 0.07 122.69 0.07Q120.1 0.07 120.1-1.29L120.1-1.29 120.1-15.06Q120.1-16.38 119.48-17.07 118.86-17.75 117.47-17.75L117.47-17.75Q116.29-17.75 115.39-16.97 114.49-16.19 114.02-15.23L114.02-15.23 114.02-1.29Q114.02 0.07 111.39 0.07L111.39 0.07 110.19 0.07ZM174.81 0.37Q172.44 0.37 170.6-1.01 168.75-2.39 167.72-5.04 166.68-7.69 166.68-11.38L166.68-11.38Q166.68-14.92 167.75-17.55 168.83-20.19 170.89-21.62 172.95-23.05 175.83-23.05L175.83-23.05Q178.42-23.05 180.25-21.7L180.25-21.7 180.25-31.32Q180.25-32.74 182.86-32.74L182.86-32.74 184.09-32.74Q185.43-32.74 186.05-32.39 186.67-32.03 186.67-31.32L186.67-31.32 186.67-7.67Q186.67-5.64 186.78-4.52 186.89-3.39 187.09-2.29L187.09-2.29Q187.21-1.64 187.21-1.37L187.21-1.37Q187.21-0.88 186.3-0.56 185.38-0.24 184.22-0.1 183.06 0.05 182.35 0.05L182.35 0.05Q181.6 0.05 181.29-0.54 180.99-1.12 180.74-2.25L180.74-2.25 180.59-2.91Q179.81-1.46 178.28-0.55 176.74 0.37 174.81 0.37L174.81 0.37ZM176.71-4.91Q178.76-4.91 180.25-7.47L180.25-7.47 180.25-17.16Q178.71-17.99 177.23-17.99L177.23-17.99Q173.17-17.99 173.17-11.38L173.17-11.38Q173.17-4.91 176.71-4.91L176.71-4.91ZM276.55-26.44Q275.19-26.44 274.56-26.78 273.94-27.12 273.94-27.83L273.94-27.83 273.94-31.32Q273.94-32.03 274.57-32.39 275.21-32.74 276.55-32.74L276.55-32.74 277.75-32.74Q279.09-32.74 279.73-32.39 280.36-32.03 280.36-31.32L280.36-31.32 280.36-27.83Q280.36-27.12 279.74-26.78 279.12-26.44 277.75-26.44L277.75-26.44 276.55-26.44ZM276.55 0.07Q273.94 0.07 273.94-1.29L273.94-1.29 273.94-21.41Q273.94-22.09 274.57-22.44 275.21-22.78 276.55-22.78L276.55-22.78 277.75-22.78Q279.09-22.78 279.73-22.44 280.36-22.09 280.36-21.41L280.36-21.41 280.36-1.29Q280.36 0.07 277.75 0.07L277.75 0.07 276.55 0.07ZM328.35 0.37Q325.25 0.37 323.63-1.38 322-3.13 322-6.69L322-6.69 322-17.63 321.32-17.63Q320.64-17.63 320.33-18.14 320.03-18.65 320.03-19.8L320.03-19.8 320.03-20.53Q320.03-21.68 320.33-22.19 320.64-22.71 321.32-22.71L321.32-22.71 322-22.71 322.57-26.83Q322.76-28.2 324.91-28.2L324.91-28.2 326.28-28.2Q327.4-28.2 327.92-27.86 328.45-27.51 328.45-26.83L328.45-26.83 328.45-22.71 330.57-22.71Q331.26-22.71 331.56-22.19 331.87-21.68 331.87-20.53L331.87-20.53 331.87-19.8Q331.87-18.65 331.56-18.14 331.26-17.63 330.57-17.63L330.57-17.63 328.45-17.63 328.45-6.62Q328.45-5.62 328.8-5.18 329.16-4.74 329.99-4.74L329.99-4.74Q330.23-4.74 330.65-4.82 331.06-4.91 331.16-4.91L331.16-4.91Q331.55-4.91 331.86-4.26 332.16-3.61 332.34-2.83 332.53-2.05 332.53-1.78L332.53-1.78Q332.53 0.37 328.35 0.37L328.35 0.37ZM370.87 5.42Q370.17 5.42 369.53 5.19 368.9 4.96 368.9 4.49L368.9 4.49Q368.9 4.22 369.02 3.83 369.14 3.44 369.31 3.05L369.31 3.05Q370 1.42 370.42-0.29 370.85-2 370.85-4.79L370.85-4.79Q370.85-6.69 373.44-6.69L373.44-6.69 374.27-6.69Q375.59-6.69 376.22-6.16 376.86-5.64 376.86-4.79L376.86-4.79Q376.86-2.51 375.79-0.13 374.73 2.25 373.29 3.83 371.85 5.42 370.87 5.42L370.87 5.42ZM464.66 0Q463.76 0 463.34-0.42 462.93-0.83 462.93-1.73L462.93-1.73 462.93-29.08Q462.93-29.79 463.56-30.14 464.2-30.49 465.54-30.49L465.54-30.49 467-30.49Q468.35-30.49 468.98-30.14 469.62-29.79 469.62-29.08L469.62-29.08 469.62-5.69 479.28-5.69Q479.97-5.69 480.27-5.18 480.58-4.66 480.58-3.54L480.58-3.54 480.58-2.17Q480.58-1.03 480.27-0.51 479.97 0 479.28 0L479.28 0 464.66 0ZM529.08 0.37Q523.93 0.37 521.23-2.66 518.53-5.69 518.53-11.38L518.53-11.38Q518.53-17.04 521.23-20.04 523.93-23.05 529.08-23.05L529.08-23.05Q534.23-23.05 536.91-20.06 539.58-17.07 539.58-11.38L539.58-11.38Q539.58-5.69 536.91-2.66 534.23 0.37 529.08 0.37L529.08 0.37ZM529.08-4.74Q531.13-4.74 532.1-6.4 533.06-8.06 533.06-11.38L533.06-11.38Q533.06-14.67 532.1-16.33 531.13-17.99 529.08-17.99L529.08-17.99Q525.03-17.99 525.03-11.38L525.03-11.38Q525.03-8.08 526.02-6.41 527.01-4.74 529.08-4.74L529.08-4.74ZM587.01 0.07Q585.98 0.07 585.36-0.12 584.74-0.32 584.57-0.83L584.57-0.83 577.68-21.04Q577.66-21.19 577.58-21.45 577.51-21.7 577.51-21.83L577.51-21.83Q577.51-22.31 578.15-22.55 578.78-22.78 580.15-22.78L580.15-22.78 581.56-22.78Q582.61-22.78 583.25-22.57 583.88-22.36 584.03-21.88L584.03-21.88 586.57-13.87Q586.69-13.43 587.33-10.69L587.33-10.69 587.79-8.62 587.99-8.62Q588.74-12.45 589.18-13.87L589.18-13.87 591.75-21.88Q591.89-22.36 592.51-22.57 593.14-22.78 594.19-22.78L594.19-22.78 595.26-22.78Q596.6-22.78 597.23-22.55 597.85-22.31 597.85-21.83L597.85-21.83Q597.85-21.44 597.73-21.04L597.73-21.04 590.82-0.83Q590.67-0.34 590.05-0.13 589.43 0.07 588.4 0.07L588.4 0.07 587.01 0.07ZM647.18 0.37Q641.47 0.37 638.66-2.7 635.85-5.76 635.85-11.21L635.85-11.21Q635.85-17.33 638.66-20.19 641.47-23.05 646.4-23.05L646.4-23.05Q649.67-23.05 651.76-21.56 653.85-20.07 654.81-17.55 655.78-15.04 655.78-11.87L655.78-11.87Q655.78-11.5 655.35-10.89 654.92-10.28 654.38-9.79 653.85-9.3 653.55-9.3L653.55-9.3 642.5-9.3Q642.71-6.81 643.97-5.77 645.23-4.74 647.48-4.74L647.48-4.74Q648.7-4.74 649.68-5.02 650.67-5.3 651.8-5.76L651.8-5.76Q652.48-6.08 652.72-6.08L652.72-6.08Q653.16-6.08 653.69-5.46 654.21-4.83 654.59-4.03 654.97-3.22 654.97-2.78L654.97-2.78Q654.97-1.78 653.62-1.07 652.26-0.37 650.42 0 648.57 0.37 647.18 0.37L647.18 0.37ZM642.5-13.57L649.53-13.57Q649.53-15.58 648.75-16.78 647.96-17.99 646.4-17.99L646.4-17.99Q643.18-17.99 642.5-13.57L642.5-13.57ZM744.61-26.44Q743.24-26.44 742.62-26.78 741.99-27.12 741.99-27.83L741.99-27.83 741.99-31.32Q741.99-32.03 742.63-32.39 743.26-32.74 744.61-32.74L744.61-32.74 745.8-32.74Q747.14-32.74 747.78-32.39 748.41-32.03 748.41-31.32L748.41-31.32 748.41-27.83Q748.41-27.12 747.79-26.78 747.17-26.44 745.8-26.44L745.8-26.44 744.61-26.44ZM744.61 0.07Q741.99 0.07 741.99-1.29L741.99-1.29 741.99-21.41Q741.99-22.09 742.63-22.44 743.26-22.78 744.61-22.78L744.61-22.78 745.8-22.78Q747.14-22.78 747.78-22.44 748.41-22.09 748.41-21.41L748.41-21.41 748.41-1.29Q748.41 0.07 745.8 0.07L745.8 0.07 744.61 0.07ZM796.4 0.37Q793.3 0.37 791.68-1.38 790.06-3.13 790.06-6.69L790.06-6.69 790.06-17.63 789.37-17.63Q788.69-17.63 788.38-18.14 788.08-18.65 788.08-19.8L788.08-19.8 788.08-20.53Q788.08-21.68 788.38-22.19 788.69-22.71 789.37-22.71L789.37-22.71 790.06-22.71 790.62-26.83Q790.81-28.2 792.96-28.2L792.96-28.2 794.33-28.2Q795.45-28.2 795.98-27.86 796.5-27.51 796.5-26.83L796.5-26.83 796.5-22.71 798.63-22.71Q799.31-22.71 799.62-22.19 799.92-21.68 799.92-20.53L799.92-20.53 799.92-19.8Q799.92-18.65 799.62-18.14 799.31-17.63 798.63-17.63L798.63-17.63 796.5-17.63 796.5-6.62Q796.5-5.62 796.86-5.18 797.21-4.74 798.04-4.74L798.04-4.74Q798.28-4.74 798.7-4.82 799.11-4.91 799.21-4.91L799.21-4.91Q799.6-4.91 799.91-4.26 800.21-3.61 800.4-2.83 800.58-2.05 800.58-1.78L800.58-1.78Q800.58 0.37 796.4 0.37L796.4 0.37ZM838.93 5.42Q838.22 5.42 837.58 5.19 836.95 4.96 836.95 4.49L836.95 4.49Q836.95 4.22 837.07 3.83 837.19 3.44 837.36 3.05L837.36 3.05Q838.05 1.42 838.48-0.29 838.9-2 838.9-4.79L838.9-4.79Q838.9-6.69 841.49-6.69L841.49-6.69 842.32-6.69Q843.64-6.69 844.27-6.16 844.91-5.64 844.91-4.79L844.91-4.79Q844.91-2.51 843.85-0.13 842.78 2.25 841.34 3.83 839.9 5.42 838.93 5.42L838.93 5.42ZM932.71 0Q931.81 0 931.39-0.42 930.98-0.83 930.98-1.73L930.98-1.73 930.98-28.66Q930.98-29.57 931.39-29.97 931.81-30.37 932.71-30.37L932.71-30.37 941.31-30.37Q946.58-30.37 949.07-28.33 951.56-26.29 951.56-22.71L951.56-22.71Q951.56-20.56 950.22-18.75 948.87-16.94 946.85-16.11L946.85-16.11 946.9-15.94Q948.61-15.6 949.94-14.55 951.27-13.5 952.01-11.99 952.76-10.47 952.76-8.81L952.76-8.81Q952.76-4.54 950.05-2.27 947.34 0 941.92 0L941.92 0 932.71 0ZM937.67-18.29L940.65-18.29Q942.55-18.29 943.61-19.2 944.68-20.12 944.68-21.53L944.68-21.53Q944.68-24.76 940.72-24.76L940.72-24.76 937.67-24.76 937.67-18.29ZM937.67-5.69L941.92-5.69Q943.8-5.69 944.85-6.6 945.9-7.52 945.9-9.2L945.9-9.2Q945.9-10.86 944.69-11.72 943.48-12.57 941.21-12.57L941.21-12.57 937.67-12.57 937.67-5.69ZM998.45 0.37Q995.18 0.37 993.62-1.35 992.06-3.08 992.06-6.69L992.06-6.69 992.06-21.41Q992.06-22.09 992.69-22.44 993.33-22.78 994.67-22.78L994.67-22.78 995.86-22.78Q997.21-22.78 997.84-22.44 998.48-22.09 998.48-21.41L998.48-21.41 998.48-7.67Q998.48-6.32 999.09-5.64 999.7-4.96 1001.09-4.96L1001.09-4.96Q1002.29-4.96 1003.18-5.73 1004.07-6.49 1004.56-7.47L1004.56-7.47 1004.56-21.41Q1004.56-22.09 1005.19-22.44 1005.83-22.78 1007.17-22.78L1007.17-22.78 1008.36-22.78Q1009.71-22.78 1010.34-22.44 1010.98-22.09 1010.98-21.41L1010.98-21.41 1010.98-7.67Q1010.98-5.62 1011.09-4.46 1011.2-3.3 1011.37-2.29L1011.37-2.29Q1011.49-1.64 1011.49-1.37L1011.49-1.37Q1011.49-0.88 1010.59-0.56 1009.68-0.24 1008.52-0.1 1007.36 0.05 1006.66 0.05L1006.66 0.05Q1005.87 0.05 1005.54-0.57 1005.22-1.2 1005.02-2.34L1005.02-2.34 1004.9-2.95Q1003.87-1.56 1002.15-0.6 1000.43 0.37 998.45 0.37L998.45 0.37ZM1056.92 8.96Q1054.3 8.96 1054.3 8.03L1054.3 8.03Q1054.3 7.67 1054.48 7.25L1054.48 7.25 1057.23 0 1050.06-21.04Q1050.03-21.19 1049.96-21.45 1049.89-21.7 1049.89-21.83L1049.89-21.83Q1049.89-22.31 1050.52-22.55 1051.16-22.78 1052.52-22.78L1052.52-22.78 1053.94-22.78Q1054.96-22.78 1055.59-22.57 1056.21-22.36 1056.36-21.88L1056.36-21.88 1058.89-13.87Q1059.14-13.11 1059.51-11.44 1059.87-9.77 1059.94-9.45L1059.94-9.45 1060.12-8.62 1060.31-8.62Q1060.34-8.79 1060.43-9.13L1060.43-9.13Q1061.24-13.04 1061.53-13.87L1061.53-13.87 1064.07-21.88Q1064.24-22.39 1064.86-22.58 1065.49-22.78 1066.51-22.78L1066.51-22.78 1067.56-22.78Q1068.9-22.78 1069.53-22.55 1070.15-22.31 1070.15-21.83L1070.15-21.83Q1070.15-21.58 1070.03-21.04L1070.03-21.04 1060.07 8.03Q1059.75 8.96 1057.65 8.96L1057.65 8.96 1056.92 8.96ZM1157.49-26.44Q1156.12-26.44 1155.5-26.78 1154.88-27.12 1154.88-27.83L1154.88-27.83 1154.88-31.32Q1154.88-32.03 1155.51-32.39 1156.15-32.74 1157.49-32.74L1157.49-32.74 1158.69-32.74Q1160.03-32.74 1160.66-32.39 1161.3-32.03 1161.3-31.32L1161.3-31.32 1161.3-27.83Q1161.3-27.12 1160.68-26.78 1160.05-26.44 1158.69-26.44L1158.69-26.44 1157.49-26.44ZM1157.49 0.07Q1154.88 0.07 1154.88-1.29L1154.88-1.29 1154.88-21.41Q1154.88-22.09 1155.51-22.44 1156.15-22.78 1157.49-22.78L1157.49-22.78 1158.69-22.78Q1160.03-22.78 1160.66-22.44 1161.3-22.09 1161.3-21.41L1161.3-21.41 1161.3-1.29Q1161.3 0.07 1158.69 0.07L1158.69 0.07 1157.49 0.07ZM1209.29 0.37Q1206.19 0.37 1204.56-1.38 1202.94-3.13 1202.94-6.69L1202.94-6.69 1202.94-17.63 1202.26-17.63Q1201.57-17.63 1201.27-18.14 1200.96-18.65 1200.96-19.8L1200.96-19.8 1200.96-20.53Q1200.96-21.68 1201.27-22.19 1201.57-22.71 1202.26-22.71L1202.26-22.71 1202.94-22.71 1203.5-26.83Q1203.7-28.2 1205.85-28.2L1205.85-28.2 1207.21-28.2Q1208.34-28.2 1208.86-27.86 1209.39-27.51 1209.39-26.83L1209.39-26.83 1209.39-22.71 1211.51-22.71Q1212.19-22.71 1212.5-22.19 1212.8-21.68 1212.8-20.53L1212.8-20.53 1212.8-19.8Q1212.8-18.65 1212.5-18.14 1212.19-17.63 1211.51-17.63L1211.51-17.63 1209.39-17.63 1209.39-6.62Q1209.39-5.62 1209.74-5.18 1210.09-4.74 1210.92-4.74L1210.92-4.74Q1211.17-4.74 1211.58-4.82 1212-4.91 1212.1-4.91L1212.1-4.91Q1212.49-4.91 1212.79-4.26 1213.1-3.61 1213.28-2.83 1213.46-2.05 1213.46-1.78L1213.46-1.78Q1213.46 0.37 1209.29 0.37L1209.29 0.37Z" opacity="1" transform="matrix(1,0,0,1,0,0)" fill="#ffffff" class="undefined-text-1" data-fill-palette-color="secondary" id="text-1"></path></svg></g></svg></g></svg></g></svg></g><g transform="matrix(1,0,0,1,161.51362545176053,0)"><svg viewBox="0 0 72.49274909647892 56.492749096478924" height="56.492749096478924" width="72.49274909647892"><g><svg xmlns="http://www.w3.org/2000/svg" xmlns:xlink="http://www.w3.org/1999/xlink" version="1.1" x="7.9999999999999964" y="0" viewBox="11.0260009765625 11.026000022888184 77.9489974975586 77.9489974975586" enable-background="new 0 0 100 100" xml:space="preserve" height="56.492749096478924" width="56.492749096478924" class="icon-icon-0" data-fill-palette-color="accent" id="icon-0"><path d="M50 11.026c-21.525 0-38.974 17.449-38.974 38.974 0 12.283 5.688 23.232 14.567 30.376l-14.567 8.599H50c21.525 0 38.975-17.449 38.975-38.975C88.975 28.475 71.523 11.026 50 11.026zM49.999 85.507H23.961l8.242-4.786C21.617 74.574 14.493 63.123 14.493 50c0-19.61 15.896-35.506 35.506-35.506 19.61 0 35.507 15.896 35.507 35.506C85.506 69.609 69.609 85.507 49.999 85.507zM43.337 67.25c-2.068 0-3.75-1.683-3.75-3.75s1.682-3.75 3.75-3.75 3.75 1.683 3.75 3.75S45.405 67.25 43.337 67.25zM43.337 61.75c-0.965 0-1.75 0.785-1.75 1.75s0.785 1.75 1.75 1.75 1.75-0.785 1.75-1.75S44.302 61.75 43.337 61.75zM55.919 67.25c-2.067 0-3.75-1.683-3.75-3.75s1.683-3.75 3.75-3.75 3.75 1.683 3.75 3.75S57.986 67.25 55.919 67.25zM55.919 61.75c-0.965 0-1.75 0.785-1.75 1.75s0.785 1.75 1.75 1.75 1.75-0.785 1.75-1.75S56.884 61.75 55.919 61.75zM60.792 53.5h-19.65c0.197 0.745 0.35 1.323 0.434 1.644 0.374 1.436 1.127 1.44 1.139 1.442l15.789-0.003c2.083 0 3.148 1.53 3.449 2.435 0.174 0.523-0.109 1.09-0.634 1.265-0.104 0.034-0.211 0.051-0.315 0.051-0.416 0-0.803-0.261-0.945-0.674-0.043-0.117-0.427-1.076-1.555-1.076H42.794c-0.017 0.001-2.348 0.157-3.155-2.934-0.523-2.007-3.664-13.805-4.488-16.899h-3.898c-0.552 0-1-0.448-1-1s0.448-1 1-1h4.667c0.453 0 0.85 0.305 0.966 0.743 0 0 2.324 8.727 3.725 14.007h19.451l3.399-10.582H39.915c-0.552 0-1-0.448-1-1s0.448-1 1-1h24.918c0.319 0 0.62 0.153 0.808 0.411 0.188 0.258 0.242 0.591 0.145 0.895l-4.041 12.582C61.611 53.22 61.227 53.5 60.792 53.5z" fill="#39cccc" data-fill-palette-color="accent"></path></svg></g></svg></g><g><rect width="161.51362545176053" height="1.9882561518792985" y="53.504492944599626" x="234.00637454823945" fill="#39cccc" data-fill-palette-color="accent"></rect><rect width="161.51362545176053" height="1.9882561518792985" y="53.504492944599626" x="0" fill="#39cccc" data-fill-palette-color="accent"></rect><rect width="161.51362545176053" height="1.9882561518792985" y="49.52798064084103" x="234.00637454823945" fill="#39cccc" data-fill-palette-color="accent"></rect><rect width="161.51362545176053" height="1.9882561518792985" y="49.52798064084103" x="0" fill="#39cccc" data-fill-palette-color="accent"></rect></g></svg></g></svg><rect width="395.52" height="102.57514004053931" fill="none" stroke="none" visibility="hidden"></rect></g></svg></g></svg>