<svg id="Layer_1" data-name="Layer 1" xmlns="http://www.w3.org/2000/svg" width="300" height="137" viewBox="0 0 300 137">
  <defs>
    <style>
      .cls-1 {
        fill: #ffc07f;
      }

      .cls-2 {
        fill: #f4f4f5;
      }

      .cls-3 {
        fill: #fff;
      }

      .cls-4 {
        fill: #7e7b88;
      }

      .cls-5 {
        fill: #bbbac0;
      }

      .cls-6 {
        fill: #b07156;
      }

      .cls-7 {
        fill: #f43939;
      }

      .cls-8 {
        fill: #ffa84f;
      }

      .cls-9 {
        fill: #a3a1aa;
      }

      .cls-10 {
        fill: #f88888;
      }

      .cls-11 {
        fill: #898792;
      }

      .cls-12 {
        fill: #bdbcc2;
      }

      .cls-13 {
        fill: #d2d2d6;
      }

      .cls-14 {
        fill: #d1d1d5;
      }

      .cls-15 {
        fill: none;
        stroke: #b6b5bc;
        stroke-linecap: round;
        stroke-miterlimit: 10;
      }
    </style>
  </defs>
  <g>
    <path class="cls-1" d="M238.64,118.127l-14.29-32.22-15.18-3-18,6.35-6.51-18.47,20.49-7.23a9.84,9.84,0,0,1,5.13-.38l22.81,4.44a9.78,9.78,0,0,1,7.08,5.64l16.36,36.88Z"/>
    <path class="cls-1" d="M233.86,114.057a6.85,6.85,0,1,0-6.81-6.88977q-.00023.03989,0,.07977A6.85,6.85,0,0,0,233.86,114.057Z"/>
    <path class="cls-1" d="M128.27,115.347a9.79,9.79,0,0,1-3.28-19l48.73-17.37a9.79412,9.79412,0,0,1,6.58,18.45h0l-48.74,17.37A9.74,9.74,0,0,1,128.27,115.347Z"/>
    <path class="cls-2" d="M176.97,100.987l-10.3-25s11.22-4.62,16.75-6.87c4.18-1.72,17.17-6,19.73-6.88a13.62,13.62,0,0,1,3.8-.68,102.81967,102.81967,0,0,1,10.85.33c9.58.84,16.2,3,20.83,6.69,9,7.23,13.62,20.79,14.46,23.44l-25.8,8.2c-1.25-3.87-3.71-8.58-5.3-10.23-2.07-.78-7.48-1.38-12.3-1.4-5.68,1.9-13.73,4.64-16,5.58C188.13,96.387,176.97,100.987,176.97,100.987Z"/>
    <path d="M195.41,30.137l-4,13.35s-5.33-6-3.05-11.48c1.61-3.87,4-3.87,4-3.87"/>
    <path class="cls-1" d="M215.22,48.357H199.83v18.23h15.39Z"/>
    <path class="cls-1" d="M200.21,29.577h15v31.48h-15a9.2,9.2,0,0,1-9.22-9.18q0-.015,0-.03V38.797a9.22,9.22,0,0,1,9.22-9.22Z"/>
    <path d="M211.98,45.497c-.16-4.91-1.15-7.14-2.72-9.4-.87-1.73-1.19-5.83,2-7.41l9.59.72c1.88,3.49,2.51,9.26,0,16.09Z"/>
    <path class="cls-1" d="M215.75,53.427a5.53,5.53,0,1,0-5.52-5.54l0,.01A5.54,5.54,0,0,0,215.75,53.427Z"/>
    <path d="M212.99,48.867a.42.42,0,0,1-.31-.13.43.43,0,0,1-.00189-.60811L212.68,48.127l4.12-4a.43.43,0,0,1,.60811-.00189l.00189.00189a.44.44,0,0,1,0,.61l-4.12,4A.42.42,0,0,1,212.99,48.867Z"/>
    <path d="M220.82,29.397c-2.52-4.74-10.6-10.94-20.92-9.11-9.45,1.64-5.51,6.33-9.51,10.71,0,0,4.65,2.22,8.5,2.22,7.23,0,14.35-3.45,14.35-3.45Z"/>
    <path d="M204.21,46.247a.72.72,0,1,0-.72-.72.72.72,0,0,0,.72.72Z"/>
    <path d="M195.65,46.157a.72.72,0,1,0-.719-.719A.72.72,0,0,0,195.65,46.157Z"/>
    <path d="M207.26,43.727a.39.39,0,0,1-.23-.07,4.63,4.63,0,0,0-4.35-.35.43.43,0,0,1-.56836-.21628L202.11,43.087a.45.45,0,0,1,.22-.57,5.49,5.49,0,0,1,5.16.41.44.44,0,0,1,.13.6A.42.42,0,0,1,207.26,43.727Z"/>
    <path d="M198.05,43.407a.4599.4599,0,0,1-.2,0,4.6,4.6,0,0,0-4.15,0,.43.43,0,0,1-.57858-.18719L193.12,43.217a.42.42,0,0,1,.16907-.56941l.02093-.0106a5.44,5.44,0,0,1,4.94,0,.44.44,0,0,1-.2.82Z"/>
    <path d="M199.33,52.637c-.74,0-2.91-.13-3.18-1.68a2.83,2.83,0,0,1,1.29-2.8,4.09,4.09,0,0,0,1.68-2.84.42.42,0,0,1,.46145-.374l.02855.004a.43.43,0,0,1,.37.48,5,5,0,0,1-2,3.38c-.71.62-1.17,1-1,2s1.91,1,2.52,1a.44.44,0,0,1,.05.87Z"/>
    <path class="cls-3" d="M199.88,54.757a9.82,9.82,0,0,0,5.23-1.51s.13,2.48-1.59,2.88a3.54,3.54,0,0,1-3.64-1.32Z"/>
    <path class="cls-1" d="M208.36,32.507a.43.43,0,0,1-.12-.85l3.38-1a.43.43,0,0,1,.24.82l-3.37,1Z"/>
    <path class="cls-2" d="M235.49,127.057l-15.17-53.56-35.82,4.17-8.35,49.39Z"/>
    <path class="cls-4" d="M207.18,81.307a1.15,1.15,0,1,0-1.12984-1.16982L206.05,80.157A1.16,1.16,0,0,0,207.18,81.307Z"/>
    <path class="cls-5" d="M120.39,127.057l-3.52-43.46H66.19v43.46Z"/>
    <path d="M91.7,55.087a17.19,17.19,0,1,0-17.18-17.2v.02A17.18,17.18,0,0,0,91.7,55.087Z"/>
    <path class="cls-5" d="M141.67,127.057l-10.53-29.69v-.07c-5.18-14.4-13.1-23.28-24.19-27.21l-12.06-4.28a11.52993,11.52993,0,0,0-5.91-.48c-4.12.75-25.16,5-34.9,16.1-7.27,8.27-9.84,20.39-7.63,36.05a22.43,22.43,0,0,0,3.71,9.58h50l15-5.79,2.1,5.79Zm-72.51-13.46c-1-7.89-.22-14.21,2.2-16.95,2.78-3.17,11.9-6.41,18.85-8.06l9,3.2c2.39.84,5.38,2.66,8.35,8.83Z"/>
    <path class="cls-6" d="M97.74,63.457l-14.35.58-1.06-28.86,23.89-2.79.91,20.86a9.79878,9.79878,0,0,1-9.39,10.21Z"/>
    <path class="cls-6" d="M99.95,69.247l-8.24,4.55-9.1-5.39-1.19-31,17.14-5.6Z"/>
    <path d="M95.36,47.447a.72.72,0,1,0-.72-.72.72.72,0,0,0,.72.72Z"/>
    <path d="M103.91,47.377a.72.72,0,1,0-.72-.72.72.72,0,0,0,.72.72Z"/>
    <path d="M93.05,44.747a.43.43,0,0,1-.19-.82,5.71,5.71,0,0,1,4.37-.21.43189.43189,0,0,1-.3.81,4.73,4.73,0,0,0-1.88-.28,4.84019,4.84019,0,0,0-1.83.46A.38991.38991,0,0,1,93.05,44.747Z"/>
    <path d="M101.48,44.607a.44.44,0,0,1-.38-.22.43.43,0,0,1,.17-.58,5.17,5.17,0,0,1,4.42-.21.43.43,0,0,1-.32366.79677q-.01855-.00753-.03634-.01677a4.42,4.42,0,0,0-3.64.18A.40984.40984,0,0,1,101.48,44.607Z"/>
    <path d="M100.4,53.807a.44.44,0,0,1-.43-.38.43.43,0,0,1,.37422-.47932L100.35,52.947c.81-.11,2.07-.49,2.22-1,.19-.65-.16-1-.9-1.72a5.59994,5.59994,0,0,1-2.08-3.61.43.43,0,0,1,.37-.48.42.42,0,0,1,.477.354l.003.026a4.77,4.77,0,0,0,1.82,3.08c.73.69,1.49,1.41,1.14,2.6s-2.52,1.53-2.94,1.58Z"/>
    <rect x="96.36255" y="63.05296" width="3.36" height="0.86" transform="translate(-3.02498 4.93569) rotate(-2.84)"/>
    <path class="cls-6" d="M103.98,120.117a8.93,8.93,0,0,1-3-17.34l6.48-2.3a8.93377,8.93377,0,1,1,6,16.83h0l-6.49,2.29A8.87012,8.87012,0,0,1,103.98,120.117Z"/>
    <path class="cls-3" d="M99.96,56.247c-2.31.23-3.46.2-5.21-1.36,0,0-.26,2.64,1.55,3A3.64,3.64,0,0,0,99.96,56.247Z"/>
    <path class="cls-7" d="M237.05,127.057v-8l-12.4-38.65H190.1l-15.85,39.64-.12,7Z"/>
    <path class="cls-3" d="M88.14,87.317a1.43,1.43,0,1,0-.02007,0Q88.13,87.317,88.14,87.317Z"/>
    <path class="cls-3" d="M88.14,93.657a1.44,1.44,0,1,0-1.44031-1.43969L86.7,92.247A1.44,1.44,0,0,0,88.14,93.657Z"/>
    <path d="M106.7,43.167c-1.77-5.76-4.09-8.06-10.22-10.25-1.73,7-9.79,13.5-13.75,14.22l-4.53-6.13s2.48-11.92,2.85-12.19,19.94-1.4,19.94-1.4l5.28,3.83Z"/>
    <path d="M85.26,25.327c5.52-2.55,8.4-8.09,6.43-12.37s-8.06-5.71-13.59-3.12-8.41,8.09-6.43,12.41S79.73,27.887,85.26,25.327Z"/>
    <path d="M119.16,127.307a.44.44,0,0,1-.42-.31l-1.93-6.14a.43.43,0,0,1,.28343-.538l.00657-.002a.42.42,0,0,1,.53381.26048l.00619.01952,1.93,6.14a.45.45,0,0,1-.29.55Z"/>
    <path class="cls-7" d="M82.33,23.937a.42.42,0,0,1-.36-.2.43.43,0,0,1,.11556-.597l.00444-.003a17.59015,17.59015,0,0,1,8.57-2.82.43.43,0,0,1,.45.40908l0,.00092a.42.42,0,0,1-.38882.449L90.7,21.177a16.6901,16.6901,0,0,0-8.14,2.69A.38992.38992,0,0,1,82.33,23.937Z"/>
    <path class="cls-7" d="M79.21,25.247h-.09a1.99491,1.99491,0,0,1-1.97-1.35,2,2,0,0,1-.1-.85,1.91992,1.91992,0,0,1,.25-.81,2,2,0,0,1,1.35-1,2.10971,2.10971,0,0,1,.83,0c1.11.13,2.72,1.76,2.9,2a.42.42,0,0,1,.12.34.44008.44008,0,0,1-.18.31A7.36009,7.36009,0,0,1,79.21,25.247Zm-.08-.87h0a4.86007,4.86007,0,0,0,2.22-.94,5.13,5.13,0,0,0-2-1.34h-.06a1.35,1.35,0,0,0-.49,0,1.22,1.22,0,0,0-.77.56,1.16017,1.16017,0,0,0-.14.47.99992.99992,0,0,0,.06.48,1.12016,1.12016,0,0,0,.25.42,1.15,1.15,0,0,0,.41.28,1.27,1.27,0,0,0,.48.08Z"/>
    <path class="cls-7" d="M80.85,28.437h0a2.07,2.07,0,0,1-1.51-.72,2.22024,2.22024,0,0,1-.4-.76,2.3754,2.3754,0,0,1,.29-1.63c.51-1,2.59-1.94,2.83-2a.45.45,0,0,1,.36,0,.46.46,0,0,1,.23.28c.07.25.67,2.49.19,3.51a1.82,1.82,0,0,1-.4.69,1.869,1.869,0,0,1-1.59.63Zm1-4.14a5.07988,5.07988,0,0,0-1.94,1.43v.05a1.23012,1.23012,0,0,0-.18.46,1.25,1.25,0,0,0,.26.92,1.15,1.15,0,0,0,.87.41,1.31976,1.31976,0,0,0,.48-.09,1.40983,1.40983,0,0,0,.4-.29,1.18,1.18,0,0,0,.24-.42A4.99992,4.99992,0,0,0,81.85,24.297Z"/>
    <path class="cls-7" d="M84.68,29.107a.44.44,0,0,1-.42-.31,10.52,10.52,0,0,0-2.34-4.55.43156.43156,0,1,1,.59-.63h0a11.10993,11.10993,0,0,1,2.54,4.94.42.42,0,0,1-.27606.52592L84.76,29.087A.24987.24987,0,0,1,84.68,29.107Z"/>
    <path class="cls-7" d="M85.4,26.247a.46.46,0,0,1-.35-.17,5.19,5.19,0,0,0-3-2,.45.45,0,0,1-.33-.52.44.44,0,0,1,.52-.33,6.11,6.11,0,0,1,3.55,2.32.42.42,0,0,1-.08333.5881L85.69,26.147A.38.38,0,0,1,85.4,26.247Z"/>
    <path class="cls-6" d="M80.78,54.727a5.18,5.18,0,1,0-5.18-5.18,5.18,5.18,0,0,0,5.18,5.18Z"/>
    <path d="M82.54,49.477a.43.43,0,0,1-.28-.11l-3-2.63a.43278.43278,0,1,1,.56-.66h0l3,2.64a.43.43,0,0,1-.28.76Z"/>
    <path class="cls-4" d="M207.18,73.317a1.15,1.15,0,1,0-1.12984-1.16982L206.05,72.167A1.15,1.15,0,0,0,207.18,73.317Z"/>
    <path class="cls-8" d="M214.98,114.567c-.25,0-6.27-.07-11.82-5.61a2.6,2.6,0,1,1,3.67-3.67c4,4,8,4.09,8.18,4.09a2.6,2.6,0,0,1,0,5.19Z"/>
    <path class="cls-1" d="M216.58,114.387H202.76a2.59,2.59,0,1,1,0-5.18h13.82a2.59,2.59,0,1,1,0,5.18Z"/>
    <path class="cls-1" d="M201.6,113.367a12.76016,12.76016,0,0,0-.43,5.56c.58,3.65,3.95,8.13,3.95,8.13h14.46l-1.53-14.45Z"/>
    <path d="M205.35,114.247h-3.46a.44.44,0,0,1,0-.87h3.46a.44.44,0,0,1,0,.87Z"/>
    <path class="cls-1" d="M128.53,115.507a8.92,8.92,0,0,1-3.72-17l12.39-5.68a8.93,8.93,0,1,1,7.85975,16.03757q-.20736.10162-.41975.19242l-12.4,5.68A8.87,8.87,0,0,1,128.53,115.507Z"/>
    <path class="cls-6" d="M141.22,113.777a2.53989,2.53989,0,0,1-1.51-.49l-11.2-8.04a5.54,5.54,0,0,0-2.59-.93l-9.22-.84a6.99988,6.99988,0,0,0-3,.37l-8,2.81a2.59184,2.59184,0,1,1-1.72-4.89h0l8-2.81a12.20988,12.20988,0,0,1,5.19-.65l9.22.85a10.7,10.7,0,0,1,5.11,1.86l11.24,8.09a2.59,2.59,0,0,1-1.52,4.69Z"/>
    <path class="cls-6" d="M136.27,108.887l1.43,3.22a2.31,2.31,0,0,1-.85,2.84l-8.58,5.57-11.56-7.27-1.33-10.43,10.77-1.11Z"/>
    <path d="M135.11,115.937a.47.47,0,0,1-.27-.1l-4.06-3.25a.43.43,0,0,1-.06-.6.42.42,0,0,1,.5887-.07894l.01131.00894,4.06,3.25a.43.43,0,0,1-.27.77Z"/>
    <path class="cls-5" d="M50.16,127.057h50l4.18-1.48-7.69-21.72-28.08,10a.47.47,0,0,1,.2,0,.36.36,0,0,1,.2.06.46.46,0,0,1,.17.17.5.5,0,0,1,.09.24l-22.81,3.22A22.4701,22.4701,0,0,0,50.16,127.057Z"/>
    <path class="cls-9" d="M64.21,127.057a2.88,2.88,0,0,0,.3-1.29,1.87,1.87,0,0,0-.49-1.4,1.71,1.71,0,0,0-.62-.44,1.8601,1.8601,0,0,0-.74-.16,2.63005,2.63005,0,0,0-1.85,1.21,2.63005,2.63005,0,0,0-1.85-1.21,1.89,1.89,0,0,0-.74.16,1.71,1.71,0,0,0-.62.44,1.87,1.87,0,0,0-.49,1.4,3.16,3.16,0,0,0,.29,1.29Z"/>
    <path class="cls-9" d="M64.51,102.477a1.76984,1.76984,0,0,0-.1-.76,1.74012,1.74012,0,0,0-.39-.65,1.83,1.83,0,0,0-1.36-.59,2.63,2.63,0,0,0-1.85,1.2,2.63005,2.63005,0,0,0-1.85-1.2,1.87992,1.87992,0,0,0-.74.15,1.83982,1.83982,0,0,0-.62.44,1.7399,1.7399,0,0,0-.39.65,1.77,1.77,0,0,0-.1.76c0,2.6,3.68,4.66,3.68,4.66S64.51,105.077,64.51,102.477Z"/>
    <path class="cls-9" d="M85.05,100.477a2.6,2.6,0,0,0-1.84,1.2,2.6,2.6,0,0,0-1.85-1.2,1.92994,1.92994,0,0,0-.75.15,1.85,1.85,0,0,0-1,1.09,1.93993,1.93993,0,0,0-.1.76c0,2.6,3.68,4.66,3.69,4.66s3.72-2.06,3.72-4.67a1.92009,1.92009,0,0,0-.1-.75,2.00007,2.00007,0,0,0-.39-.65,1.9,1.9,0,0,0-.62-.44A1.92977,1.92977,0,0,0,85.05,100.477Z"/>
    <path class="cls-9" d="M85.05,77.427a2.6,2.6,0,0,0-1.84,1.21,2.6,2.6,0,0,0-1.85-1.21,1.94,1.94,0,0,0-.75.16,1.9,1.9,0,0,0-.62.44,1.87416,1.87416,0,0,0-.49,1.41c0,2.61,3.68,4.66,3.69,4.66s3.72-2.06,3.72-4.67a1.91991,1.91991,0,0,0-.1-.75,2,2,0,0,0-.39-.65,1.9,1.9,0,0,0-.62-.44A1.94,1.94,0,0,0,85.05,77.427Z"/>
    <path class="cls-9" d="M57.11,79.437c0,2.61,3.68,4.66,3.68,4.66s3.72-2.06,3.72-4.67a1.91014,1.91014,0,0,0-.09-.75,1.82,1.82,0,0,0-.4-.65,1.89,1.89,0,0,0-1.36-.6,2.63,2.63,0,0,0-1.85,1.21,2.63005,2.63005,0,0,0-1.85-1.21,2.00012,2.00012,0,0,0-.82.19l-.57.49A2,2,0,0,0,57.11,79.437Z"/>
    <path class="cls-9" d="M109.32,125.767a1.87,1.87,0,0,0-.49-1.4,1.70992,1.70992,0,0,0-.62-.44,1.89,1.89,0,0,0-.74-.16,2.63005,2.63005,0,0,0-1.85,1.21,2.6,2.6,0,0,0-1.84-1.21,1.94,1.94,0,0,0-.75.16,1.9001,1.9001,0,0,0-.62.44,1.87993,1.87993,0,0,0-.39.65,1.74992,1.74992,0,0,0-.1.75,2.99979,2.99979,0,0,0,.29,1.28h6.84A3.13994,3.13994,0,0,0,109.32,125.767Z"/>
    <path class="cls-9" d="M74.66,111.827a2.6,2.6,0,0,0-1.85,1.2,2.63,2.63,0,0,0-1.85-1.2,1.84987,1.84987,0,0,0-.74.15,1.99983,1.99983,0,0,0-.62.44,1.90985,1.90985,0,0,0-.4.65,2.18,2.18,0,0,0-.1.76c0,2.61,3.68,4.66,3.69,4.66s3.72-2,3.72-4.66a1.8,1.8,0,0,0-.1-.76,1.88,1.88,0,0,0-.39-.65,2.11994,2.11994,0,0,0-.62-.44A1.88,1.88,0,0,0,74.66,111.827Z"/>
    <path class="cls-9" d="M105.62,78.637a2.6,2.6,0,0,0-1.84-1.21,1.94,1.94,0,0,0-.75.16,1.9001,1.9001,0,0,0-.62.44,1.87993,1.87993,0,0,0-.39.65,1.76988,1.76988,0,0,0-.1.76c0,2.61,3.68,4.66,3.68,4.66s3.72-2.06,3.72-4.67a1.75008,1.75008,0,0,0-.1-.75,1.66009,1.66009,0,0,0-.39-.65,1.89,1.89,0,0,0-1.36-.6A2.63,2.63,0,0,0,105.62,78.637Z"/>
    <path class="cls-9" d="M131.73,125.767a1.74993,1.74993,0,0,0-.1-.75,1.88,1.88,0,0,0-.39-.65,1.9,1.9,0,0,0-.62-.44,1.94,1.94,0,0,0-.75-.16,2.6,2.6,0,0,0-1.84,1.21,2.63,2.63,0,0,0-1.85-1.21,1.89009,1.89009,0,0,0-.74.16,1.71,1.71,0,0,0-.62.44,1.83,1.83,0,0,0-.5,1.4,3.16007,3.16007,0,0,0,.3,1.28h6.82A2.99994,2.99994,0,0,0,131.73,125.767Z"/>
    <path class="cls-9" d="M50.39,95.187s3.72-2.06,3.72-4.67a1.83,1.83,0,0,0-.5-1.4,1.71024,1.71024,0,0,0-.62-.44,1.73022,1.73022,0,0,0-.74-.16,2.6,2.6,0,0,0-1.85,1.21,3.14,3.14,0,0,0-1.08-1,35.0708,35.0708,0,0,0-1.63,4.2A10.13032,10.13032,0,0,0,50.39,95.187Z"/>
    <path class="cls-9" d="M50.39,118.487s3.72-2,3.72-4.66a2.00013,2.00013,0,0,0-.1-.76,1.91026,1.91026,0,0,0-.4-.65,2,2,0,0,0-.62-.44,1.88,1.88,0,0,0-.74-.15,2.59993,2.59993,0,0,0-1.85,1.2,2.6,2.6,0,0,0-1.85-1.2,1.91975,1.91975,0,0,0-.74.15,2.25992,2.25992,0,0,0-.62.44,1.88,1.88,0,0,0-.39.65,1.8,1.8,0,0,0-.1.76C46.7,116.437,50.37,118.487,50.39,118.487Z"/>
    <path class="cls-9" d="M97.05,88.527a2.63,2.63,0,0,0-1.85,1.21,2.63005,2.63005,0,0,0-1.85-1.21,1.85,1.85,0,0,0-.74.15,2,2,0,0,0-.62.44,1.6999,1.6999,0,0,0-.39.66,1.74992,1.74992,0,0,0-.1.75c0,2.61,3.68,4.66,3.68,4.66s3.72-2.06,3.72-4.67a1.7499,1.7499,0,0,0-.1-.75,1.88,1.88,0,0,0-.39-.65,2,2,0,0,0-.62-.44A1.88015,1.88015,0,0,0,97.05,88.527Z"/>
    <path class="cls-9" d="M98.92,113.817a1.83437,1.83437,0,0,0-1.85-2,2.63,2.63,0,0,0-1.85,1.2,2.6,2.6,0,0,0-1.85-1.2,1.88015,1.88015,0,0,0-.74.15,2.06015,2.06015,0,0,0-.62.44,1.88011,1.88011,0,0,0-.39.65,1.77,1.77,0,0,0-.1.76c0,2.61,3.68,4.66,3.69,4.66S98.92,116.437,98.92,113.817Z"/>
    <path class="cls-9" d="M121.32,90.527a1.74992,1.74992,0,0,0-.1-.75,1.83007,1.83007,0,0,0-.39-.66,2.11994,2.11994,0,0,0-.62-.44,1.88,1.88,0,0,0-.74-.15,2.6,2.6,0,0,0-1.85,1.21,2.63,2.63,0,0,0-1.85-1.21,1.92973,1.92973,0,0,0-.75.15,2.06972,2.06972,0,0,0-.61.44,1.86025,1.86025,0,0,0-.4.66,1.9201,1.9201,0,0,0-.1.75c0,2.61,3.68,4.66,3.69,4.66S121.32,93.137,121.32,90.527Z"/>
    <path class="cls-9" d="M76.51,90.527a1.74992,1.74992,0,0,0-.1-.75,1.82991,1.82991,0,0,0-.39-.66,1.99988,1.99988,0,0,0-.62-.44,1.87989,1.87989,0,0,0-.74-.15,2.6,2.6,0,0,0-1.85,1.21,2.63,2.63,0,0,0-1.85-1.21,1.92976,1.92976,0,0,0-.75.15,2.06981,2.06981,0,0,0-.61.44,1.86,1.86,0,0,0-.4.66,2.12,2.12,0,0,0-.1.75c0,2.61,3.68,4.66,3.69,4.66S76.51,93.137,76.51,90.527Z"/>
    <path class="cls-9" d="M86.62,127.057a3.17,3.17,0,0,0,.3-1.29,1.9201,1.9201,0,0,0-.1-.75,1.88011,1.88011,0,0,0-.39-.65,1.9,1.9,0,0,0-.62-.44,1.94,1.94,0,0,0-.75-.16,2.6,2.6,0,0,0-1.84,1.21,2.6,2.6,0,0,0-1.85-1.21,1.94,1.94,0,0,0-.75.16,1.9,1.9,0,0,0-.62.44,2,2,0,0,0-.39.65,1.91991,1.91991,0,0,0-.1.75,3.33,3.33,0,0,0,.29,1.29Z"/>
    <path d="M68.83,114.157a.43.43,0,0,1-.15-.84l18.74-6.64a.42.42,0,0,1,.54306.2406l.00694.0194a.43.43,0,0,1-.25966.54989L87.71,107.487l-18.74,6.64A.35.35,0,0,1,68.83,114.157Z"/>
    <rect class="cls-3" x="92.00659" y="103.9137" width="12.92" height="23.04" transform="translate(-33.13578 39.92592) rotate(-19.69)"/>
    <path d="M91.75,96.317a.43.43,0,0,1-.43-.43h0V74.707a.43.43,0,0,1,.86,0v21.18a.43.43,0,0,1-.43.43Z"/>
    <path class="cls-3" d="M91.7,73.857l-6.49,8.39-7.73-13.93,4.57-2.88Z"/>
    <polygon points="78.443 67.71 85.975 81.258 86.547 80.518 79.172 67.251 78.443 67.71"/>
    <path d="M131.13,118.577a.45.45,0,0,1-.29-.1l-1.79-1.64a.43186.43186,0,0,1,.58-.64l1.83,1.63a.44.44,0,0,1,0,.61A.4.4,0,0,1,131.13,118.577Z"/>
    <path class="cls-10" d="M224.65,87.317h-6.91v-25.5l6.91.91Z"/>
    <path class="cls-3" d="M221.34,85.307a1.44,1.44,0,1,0-1.44-1.44A1.44,1.44,0,0,0,221.34,85.307Z"/>
    <path class="cls-10" d="M196.43,87.317H190.1V66.587l6.33-2.17Z"/>
    <path class="cls-3" d="M193.26,85.307a1.44,1.44,0,1,0-1.44-1.44,1.44,1.44,0,0,0,1.44,1.44Z"/>
    <path class="cls-3" d="M91.7,73.857l6.48,8.39,6-13.89-2.88-2.88Z"/>
    <polygon points="96.804 80.465 97.404 81.243 103.341 67.518 102.687 66.864 96.804 80.465"/>
    <path class="cls-4" d="M216.05,71.867v-10c-4.43.09-8,2.31-8,5S211.58,71.767,216.05,71.867Z"/>
    <path class="cls-4" d="M199.31,61.877v10c4.44-.09,8-2.3,8-5S203.75,61.977,199.31,61.877Z"/>
    <path class="cls-9" d="M207.66,69.467a2.59093,2.59093,0,1,0-.02008.00007Z"/>
    <path class="cls-1" d="M252.98,127.057a16.26,16.26,0,0,0,3.81-15.43l-.67-2.42H208.05v17.85Z"/>
    <path d="M238.98,109.427H228.21a.44.44,0,1,1,0-.87h10.77a.44.44,0,0,1,0,.87Z"/>
    <path class="cls-11" d="M179.15,98.837H157.84v12.1h21.31Z"/>
    <path class="cls-12" d="M187.22,101.147H152.05v25.91h35.14Z"/>
    <path class="cls-13" d="M218.32,127.057v-4.52l-12.27-5.6a7.39,7.39,0,0,1-4.23-5.54l-.67-4a7.39,7.39,0,0,0-7.31-6.22h-6.65v25.91Z"/>
    <path class="cls-14" d="M181.13,88.467H157.59a2.05,2.05,0,0,0-2,2v6.85a2.05,2.05,0,0,0,2,2h23.54a2,2,0,0,0,2-2v-6.8a2,2,0,0,0-1.94939-2.04937Q181.15531,88.467,181.13,88.467Z"/>
    <path class="cls-12" d="M156.42,99.417h17.82a2,2,0,0,0,2-2v-6.91a2,2,0,0,0-2-2H156.42a2,2,0,0,0-2,2v6.87a2,2,0,0,0,1.95961,2.0396Z"/>
    <path class="cls-3" d="M156.11,97.107h18.43v-6.33H156.11Z"/>
    <path d="M137.22,111.767a.43.43,0,0,1-.26-.09l-3.63-2.84a.43417.43417,0,0,1,.54-.68l3.62,2.84a.43.43,0,0,1,.07521.60344l-.0052.00656A.44.44,0,0,1,137.22,111.767Z"/>
    <path class="cls-1" d="M132.53,93.927l-4.06-1a4.67006,4.67006,0,0,0-3.14.35l-7.57,3.76a2.77028,2.77028,0,0,0-.87.69,2.56,2.56,0,0,0-.53,1,2.73016,2.73016,0,0,0-.1,1.1,2.66029,2.66029,0,0,0,.35,1.06,2.73,2.73,0,0,0,3.46,1.1l6.91-3.1,6.45,1.16Z"/>
    <path class="cls-1" d="M125.42,123.567a2.54988,2.54988,0,0,1-1.46-.46,2.59,2.59,0,0,1-.68067-3.599l.00067-.001,3.3-4.81a2.5906,2.5906,0,0,1,4.28,2.92l-3.3,4.82A2.59,2.59,0,0,1,125.42,123.567Z"/>
    <path class="cls-1" d="M124.29,119.577l3.11-5.85a1.11,1.11,0,0,0,.13-.57,1.13012,1.13012,0,0,0-.16-.56,1.15008,1.15008,0,0,0-.41-.41,1.09,1.09,0,0,0-.56-.15l-10.22-.22a1.86,1.86,0,0,0-1,.3,1.77007,1.77007,0,0,0-.68.85l-1.42,3.8a1.38977,1.38977,0,0,0-.09.57,1.4199,1.4199,0,0,0,.15.56,1.54992,1.54992,0,0,0,.36.45,1.37,1.37,0,0,0,.51.26l7.49,2.15a2.45,2.45,0,0,0,2.84-1.18Z"/>
    <path d="M124.81,118.997a.45964.45964,0,0,1-.2,0,.43.43,0,0,1-.18-.58l2.19-4.13a.44.44,0,0,1,.59-.18.43.43,0,0,1,.18.58l-2.2,4.13A.42.42,0,0,1,124.81,118.997Z"/>
    <g>
      <path d="M121.4,115.017a.43.43,0,0,0,.25.55.40006.40006,0,0,0,.15,0,.43.43,0,0,0,.41-.24l1.18-3.08a.42447.42447,0,0,0,.00421-.27472l-.821-.01763Z"/>
      <path d="M117.98,114.557h.14a.42992.42992,0,0,0,.41-.27l.78-2.28a.42.42,0,0,0,.016-.12231l-.88287-.019L117.72,114.007l-.00013.00031A.43.43,0,0,0,117.98,114.557Z"/>
    </g>
    <path class="cls-7" d="M81.42,52.907l1.63,2.74,1.59,2.74H78.25l1.58-2.74Z"/>
    <path class="cls-15" d="M23.74,127.307H276.26"/>
  </g>
</svg>
